<?xml version="1.0" standalone="no"?>
<!DOCTYPE svg PUBLIC "-//W3C//DTD SVG 20010904//EN"
 "http://www.w3.org/TR/2001/REC-SVG-20010904/DTD/svg10.dtd">
<svg version="1.0" xmlns="http://www.w3.org/2000/svg"
 width="407.000000pt" height="407.000000pt" viewBox="0 0 407.000000 407.000000"
 preserveAspectRatio="xMidYMid meet">
<metadata>
Created by potrace 1.11, written by Peter Selinger 2001-2013
</metadata>
<g transform="translate(0.000000,407.000000) scale(0.100000,-0.100000)"
fill="#000000" stroke="none">
<path d="M3127 3829 c-26 -5 -73 -21 -104 -34 -30 -14 -66 -25 -78 -25 -31 0
-152 -62 -200 -103 -72 -61 -153 -107 -201 -114 -48 -6 -49 -8 -33 -61 2 -8
-16 -22 -47 -35 -28 -12 -57 -27 -65 -33 -34 -26 -50 -24 -92 14 -200 179
-437 302 -582 302 -63 0 -64 0 -101 -46 l-38 -45 -3 -127 c-4 -114 -7 -129
-26 -151 -21 -23 -25 -23 -117 -16 -52 5 -122 9 -156 10 -77 2 -86 8 -78 51 6
33 -7 47 -21 24 -3 -5 -20 -10 -36 -10 -30 0 -39 7 -166 123 l-64 58 -93 -7
c-63 -4 -100 -3 -114 5 -17 9 -27 8 -45 -3 -12 -9 -42 -22 -67 -31 -24 -8 -52
-23 -62 -32 -21 -19 -33 -73 -24 -109 6 -21 11 -25 31 -20 27 7 75 -8 75 -24
0 -13 -147 -13 -155 0 -9 15 -25 12 -25 -5 0 -8 10 -21 23 -29 29 -18 87 -28
87 -16 0 6 8 10 18 10 15 0 15 -2 2 -11 -11 -7 4 -9 54 -7 48 2 70 -1 73 -9 3
-8 -4 -13 -16 -13 -20 0 -21 -1 -7 -29 17 -33 47 -44 83 -30 44 17 62 10 90
-32 33 -51 46 -124 27 -161 -18 -36 -28 -40 -83 -41 -49 -1 -65 8 -140 83 -59
58 -210 147 -263 154 -41 6 -52 3 -97 -24 -28 -18 -51 -37 -51 -43 0 -7 -20
-65 -45 -130 -51 -135 -53 -152 -30 -352 8 -71 15 -191 15 -265 0 -75 7 -190
15 -255 56 -437 60 -490 59 -770 -1 -208 -4 -241 -27 -345 -14 -63 -35 -144
-46 -180 -25 -80 -25 -80 -2 -80 39 0 42 -39 15 -210 -16 -104 -18 -112 -63
-249 -17 -52 -30 -95 -28 -97 1 -1 16 -5 33 -8 29 -6 32 -3 91 83 l62 89 40
183 c23 101 50 209 60 239 10 30 22 76 26 102 3 26 10 50 16 53 5 4 9 19 9 34
0 29 16 51 37 51 11 0 11 -4 2 -22 -7 -13 -13 -36 -13 -53 0 -27 9 -36 93 -92
52 -34 104 -71 116 -83 13 -12 47 -25 86 -31 35 -6 78 -19 96 -30 41 -23 103
-35 103 -20 0 6 7 11 17 11 9 0 13 -3 9 -7 -10 -10 116 -31 194 -32 47 -1 77
5 105 19 46 24 59 25 74 6 6 -8 31 -19 55 -25 24 -6 49 -18 57 -27 12 -14 10
-19 -14 -39 -37 -29 -156 -67 -198 -63 -28 2 -35 8 -37 28 -7 48 -21 48 -149
-2 -49 -19 -51 -21 -42 -45 20 -54 13 -69 -44 -86 -113 -34 -187 -62 -187 -72
1 -5 25 -37 54 -69 44 -49 56 -57 71 -49 17 10 17 11 -3 29 -12 10 -22 24 -22
31 0 7 -4 13 -10 13 -5 0 -10 7 -10 15 0 18 31 20 50 2 12 -10 12 -9 2 5 -15
19 -2 31 22 22 9 -4 16 -1 16 6 0 8 11 11 30 8 18 -3 31 0 34 9 3 7 14 13 24
13 11 0 25 7 32 15 10 12 16 13 27 4 11 -10 12 -9 7 5 -10 25 19 19 47 -10 24
-25 24 -26 5 -40 -11 -8 -32 -14 -48 -14 -15 0 -28 -4 -28 -9 0 -12 -107 -44
-129 -38 -14 3 -18 -1 -17 -23 1 -25 3 -27 21 -17 36 19 179 67 201 67 13 0
37 -19 63 -49 l42 -49 47 18 c26 10 68 28 95 39 44 19 46 22 35 41 -7 11 -19
18 -28 15 -19 -6 -75 49 -66 64 5 7 -2 11 -17 11 -21 0 -87 54 -76 64 21 19
48 24 58 12 8 -9 24 -11 58 -5 49 7 128 35 150 51 14 11 74 -17 70 -32 -1 -6
9 -16 23 -23 34 -17 31 -39 -10 -84 -52 -56 -96 -115 -104 -139 -5 -18 3 -27
53 -57 32 -21 72 -37 88 -37 42 0 103 12 99 19 -2 3 42 5 97 5 56 -1 91 0 77
3 -14 3 -30 9 -37 15 -8 6 -19 6 -33 -2 -11 -6 -25 -8 -31 -5 -14 9 9 35 32
35 10 0 21 5 24 10 10 16 25 1 18 -17 -4 -11 -3 -14 5 -9 7 4 12 16 12 27 0
24 26 25 39 1 6 -9 11 -11 11 -5 0 10 6 10 25 1 21 -10 29 -7 67 24 51 42 113
72 127 63 6 -3 11 -14 11 -24 0 -17 64 -42 192 -77 56 -14 71 -3 39 29 -14 14
-21 17 -21 8 0 -10 -10 -12 -37 -8 -69 11 -144 38 -137 48 3 6 12 8 20 5 7 -3
16 -1 19 4 4 6 1 10 -4 10 -6 0 -11 7 -11 16 0 8 4 13 9 9 5 -3 13 -1 16 5 4
6 3 10 -2 9 -27 -5 -53 3 -53 16 0 8 6 15 13 16 6 0 2 5 -10 11 -29 14 -29 19
2 48 25 23 28 24 83 11 50 -11 79 -17 103 -20 4 -1 9 -10 12 -20 7 -28 97 -54
138 -39 22 7 37 7 52 0 12 -6 49 -18 83 -27 70 -17 150 -47 284 -105 153 -67
222 -91 218 -77 -10 29 -188 134 -305 181 -112 44 -137 58 -115 68 4 2 27 27
51 55 34 41 51 53 72 53 15 0 31 -5 34 -11 4 -6 22 -9 40 -7 21 1 41 -4 53
-15 11 -10 33 -22 48 -26 23 -6 30 -15 36 -46 5 -22 15 -46 23 -55 8 -9 15
-21 15 -27 0 -6 16 -31 35 -55 64 -79 58 -76 71 -33 10 38 35 57 48 36 10 -16
79 0 106 25 14 12 39 26 55 30 17 4 47 22 67 40 26 23 54 37 97 45 60 13 61
14 76 58 8 26 21 75 30 111 37 161 98 302 124 286 4 -3 24 9 45 24 l39 29 -29
13 c-16 7 -47 24 -69 39 -22 14 -69 41 -105 59 -94 48 -153 95 -169 138 -17
49 -23 182 -8 182 7 0 28 -10 47 -21 44 -27 108 -21 195 19 l62 30 2 91 c1 94
-10 141 -43 174 -15 15 -87 176 -103 232 -4 11 -10 23 -15 26 -5 3 -10 19 -11
35 -2 25 1 29 23 26 14 -1 81 -5 149 -9 155 -7 158 5 10 60 -57 21 -140 53
-183 71 l-80 32 -18 55 c-25 73 -33 183 -18 239 16 61 44 88 108 106 135 40
176 75 162 140 -12 53 -14 115 -5 136 4 10 0 31 -9 49 -9 17 -13 42 -10 54 3
12 -1 39 -10 59 -21 49 -54 49 -95 -1 -17 -21 -31 -44 -31 -53 0 -8 10 0 21
18 42 65 98 24 70 -53 -14 -40 -14 -52 1 -37 7 7 20 12 30 12 16 0 16 -2 1
-29 -16 -26 -15 -31 1 -66 35 -73 -1 -175 -61 -175 -29 0 -29 1 2 46 29 43 31
66 9 125 -9 24 -16 70 -15 102 0 36 -3 56 -9 52 -15 -9 -12 -74 5 -149 14 -58
14 -70 1 -101 -21 -49 -46 -49 -27 0 4 11 4 35 -1 55 -5 19 -15 69 -23 110
l-15 75 5 -86 c5 -117 -3 -145 -73 -239 -66 -88 -81 -133 -85 -250 -3 -84 -20
-96 -77 -54 -52 37 -76 75 -65 100 5 11 7 22 7 26 -1 4 13 14 31 22 17 8 41
21 52 29 20 15 19 17 -26 64 -30 31 -54 69 -68 106 -27 74 -26 81 5 111 31 28
27 52 -10 66 -18 6 -28 21 -36 52 -27 104 -40 140 -60 165 -13 17 -17 30 -11
36 15 15 41 0 41 -25 0 -25 7 -36 32 -56 14 -11 24 -9 66 20 27 18 58 38 68
44 13 7 20 27 24 65 l5 54 60 0 c79 0 140 27 154 68 l11 30 -38 -8 c-88 -17
-87 -17 -84 53 2 34 10 84 17 112 16 60 9 71 -61 99 -28 11 -67 30 -87 44 -20
13 -58 27 -85 31 -58 8 -73 22 -87 84 -8 37 -18 52 -50 74 -42 29 -61 31 -138
17z m68 -71 l-6 -33 15 33 c8 17 19 32 24 32 14 0 21 -35 13 -72 -6 -27 -13
-34 -44 -41 -25 -6 -42 -5 -51 2 -16 14 -26 55 -19 82 6 23 23 25 23 4 0 -21
13 -19 28 5 18 29 24 25 17 -12z m-85 -39 l0 -51 -32 7 c-45 10 -48 13 -48 40
0 26 15 41 25 25 11 -17 23 -11 29 15 10 41 26 19 26 -36z m-102 -13 c2 -10
-1 -23 -7 -29 -16 -16 -44 14 -35 37 8 22 38 17 42 -8z m-1268 -11 c28 -29 51
-34 25 -5 -15 17 -16 20 -3 20 9 0 21 -7 28 -15 7 -8 17 -15 22 -15 6 0 5 7
-2 15 -21 25 2 17 34 -12 17 -16 24 -20 17 -10 -25 32 -2 30 28 -4 28 -30 30
-31 24 -8 -5 22 -3 22 25 -8 17 -18 36 -33 43 -33 7 0 24 -10 37 -22 20 -18
24 -19 19 -5 -9 26 6 21 38 -13 16 -16 34 -30 40 -30 7 0 31 -18 54 -40 23
-22 39 -40 35 -40 -4 0 -39 20 -78 43 -92 57 -125 71 -219 97 -97 27 -148 21
-190 -22 -32 -31 -32 -37 -11 -179 5 -37 3 -49 -11 -60 -10 -8 -30 -27 -46
-42 -23 -24 -31 -26 -49 -17 -22 12 -26 25 -9 35 6 4 8 13 5 21 -4 9 2 14 16
14 17 0 18 3 8 15 -10 12 -8 16 11 23 l23 9 -22 14 c-29 18 -28 32 1 24 19 -5
18 -3 -8 19 l-29 25 24 9 c15 6 19 11 12 16 -18 11 -14 26 6 26 12 1 9 5 -10
16 -37 20 -35 34 5 34 l32 1 -28 15 c-35 19 -27 37 10 23 26 -10 26 -9 10 9
-23 25 -21 36 3 29 13 -3 20 0 20 9 0 18 5 18 38 -3 l27 -17 -22 25 c-39 44
-23 57 17 14z m1548 -32 c-3 -24 -13 -32 -78 -59 -64 -26 -78 -36 -93 -68 -10
-22 -15 -45 -11 -55 6 -14 8 -13 12 4 2 11 15 30 28 41 12 12 20 25 17 28 -4
3 3 6 15 6 12 0 22 6 22 14 0 12 59 29 69 20 7 -6 -22 -65 -38 -77 -9 -7 -24
-24 -34 -39 -14 -22 -72 -58 -93 -58 -3 0 -13 15 -24 33 -45 73 -18 121 105
187 50 26 94 48 98 49 5 1 7 -11 5 -26z m-1302 -30 c-7 -7 -26 7 -26 19 0 6 6
6 15 -2 9 -7 13 -15 11 -17z m849 8 c-8 -15 13 -23 32 -13 10 5 30 12 46 16
22 5 27 3 27 -11 0 -20 -146 -117 -209 -139 -48 -18 -154 -18 -149 -1 3 6 18
17 34 22 28 10 89 51 129 89 31 29 104 59 90 37z m515 -25 c0 -2 -7 -17 -15
-32 -8 -16 -15 -37 -15 -46 0 -9 -13 -26 -30 -38 -16 -12 -30 -25 -30 -30 0
-5 24 -12 54 -15 90 -12 156 23 156 82 0 19 5 22 38 21 20 0 48 -5 61 -10 22
-8 23 -10 7 -27 -20 -22 -20 -35 -1 -51 22 -18 18 -60 -7 -87 -12 -13 -25 -23
-30 -23 -5 0 -37 -14 -72 -31 -64 -31 -76 -46 -76 -96 0 -14 -6 -23 -15 -23
-10 0 -15 10 -15 31 0 33 -14 32 -23 -1 -8 -31 16 -47 83 -55 77 -9 81 -31 13
-69 -46 -26 -62 -24 -63 10 0 6 -16 24 -35 41 -43 39 -47 80 -10 114 13 13 25
28 25 34 0 5 -5 4 -11 -2 -6 -6 -17 -9 -24 -6 -8 2 -21 -7 -29 -21 -9 -14 -23
-37 -31 -51 -9 -14 -20 -23 -25 -20 -11 7 20 74 51 114 35 44 18 46 -20 2 -23
-25 -41 -39 -45 -33 -4 6 10 29 30 52 43 47 42 64 -1 20 -39 -40 -49 -38 -23
5 28 49 18 53 -25 8 -50 -51 -59 -34 -11 23 43 51 40 47 80 124 15 30 37 63
48 72 20 16 36 23 36 14z m42 -21 c0 -5 -5 -11 -11 -13 -6 -2 -11 4 -11 13 0
9 5 15 11 13 6 -2 11 -8 11 -13z m-430 -27 c-19 -19 -14 -37 8 -31 11 3 20 1
20 -3 0 -5 -9 -15 -20 -22 -11 -7 -20 -17 -20 -23 0 -12 -53 -58 -89 -77 -14
-8 -52 -16 -84 -19 -32 -3 -60 -10 -63 -14 -3 -5 -9 -9 -14 -9 -16 0 17 63 35
66 10 1 29 17 44 34 14 17 62 51 106 75 75 41 104 50 77 23z m452 -14 c-16
-13 -33 -23 -37 -24 -12 0 12 38 30 49 31 17 36 -1 7 -25z m-2505 -16 c25 -15
53 -28 62 -28 9 0 24 -11 33 -25 9 -14 22 -25 29 -25 7 0 18 -9 25 -20 7 -11
20 -20 30 -20 19 0 42 -18 42 -32 0 -11 -48 -10 -71 2 -10 6 -19 20 -19 31 0
11 -8 22 -17 25 -10 3 -27 10 -38 14 -11 5 -34 12 -51 15 -17 3 -42 17 -54 30
-13 14 -38 29 -57 36 -18 6 -30 15 -27 20 3 6 12 8 20 5 7 -3 16 -1 19 5 4 5
12 6 18 2 7 -4 32 -20 56 -35z m-155 3 c20 29 28 21 20 -20 -5 -21 -11 -30
-20 -27 -8 3 -14 3 -14 1 0 -9 73 -110 107 -148 26 -30 33 -46 31 -70 -4 -41
-20 -37 -36 11 -7 20 -21 48 -32 62 l-19 25 6 -24 c4 -17 3 -22 -6 -17 -8 6
-10 1 -6 -17 5 -20 1 -29 -19 -43 -32 -20 -49 -10 -18 12 28 20 20 36 -41 81
-100 71 -120 83 -143 83 -26 0 -27 3 -18 38 9 31 78 66 115 58 19 -3 29 -1 29
6 0 6 11 1 24 -11 l24 -22 16 22z m1138 -35 c18 -39 19 -39 13 -8 -6 31 -6 32
18 23 13 -5 43 -15 66 -21 29 -8 41 -16 39 -27 -2 -9 3 -18 11 -21 10 -3 12 0
8 12 -4 9 -3 16 1 16 15 0 252 -123 252 -131 0 -5 9 -9 20 -9 11 0 20 -4 20
-10 0 -12 -4 -12 -59 1 -31 7 -47 6 -57 -2 -20 -16 -80 6 -87 33 -5 18 -8 19
-22 8 -18 -15 -71 -7 -96 16 -11 10 -19 12 -24 5 -3 -6 -24 -11 -45 -11 -35 0
-42 4 -60 38 -19 33 -20 34 -17 10 6 -38 -2 -45 -60 -53 -44 -6 -53 -4 -53 8
0 9 -3 22 -6 30 -3 8 4 24 16 35 20 19 21 22 6 50 -18 36 -20 46 -6 37 6 -3
10 -2 10 4 0 6 14 9 30 7 17 -2 33 1 36 5 9 15 25 -1 46 -45z m1551 14 c-3
-11 -14 -20 -24 -20 -34 0 -21 18 28 39 0 1 -1 -8 -4 -19z m-2615 -17 c-2 -10
-10 -18 -18 -18 -8 0 -16 8 -18 18 -2 12 3 17 18 17 15 0 20 -5 18 -17z m2582
-23 c0 -5 -4 -10 -10 -10 -5 0 -10 5 -10 10 0 6 5 10 10 10 6 0 10 -4 10 -10z
m-2612 -19 c3 -8 -1 -12 -9 -9 -7 2 -15 10 -17 17 -3 8 1 12 9 9 7 -2 15 -10
17 -17z m1486 -24 c16 -24 0 -32 -29 -13 -14 9 -25 26 -25 37 0 20 2 20 22 7
12 -8 26 -22 32 -31z m736 29 c0 -7 -6 -19 -14 -26 -8 -6 -13 -17 -10 -24 3
-7 -4 -21 -16 -31 -15 -14 -17 -21 -9 -32 9 -10 15 -10 25 -2 16 14 35 3 28
-16 -14 -37 -174 -86 -174 -54 0 6 -15 1 -34 -10 -40 -25 -46 -26 -46 -7 0 8
9 18 20 21 11 4 18 10 15 14 -8 13 123 131 139 125 8 -3 24 8 37 25 26 33 39
38 39 17z m-2099 -29 c38 -1 64 -7 66 -14 6 -17 -50 -43 -94 -43 -66 0 -118
40 -71 54 14 5 18 9 10 13 -6 2 -9 10 -6 15 5 7 12 5 20 -6 9 -13 29 -18 75
-19z m1679 4 c0 -5 -10 -13 -22 -17 -19 -6 -19 -7 -5 -16 13 -7 26 -2 52 18
19 14 35 25 36 23 9 -47 8 -49 -46 -89 -31 -23 -75 -48 -98 -56 -47 -17 -185
-24 -189 -10 -3 9 107 46 148 50 26 3 44 14 44 28 0 7 -5 6 -14 -2 -8 -6 -25
-10 -38 -8 -19 3 -15 8 27 29 28 13 55 29 60 35 8 10 20 16 43 23 1 1 2 -3 2
-8z m-1590 -80 c0 -15 -5 -32 -11 -38 -8 -8 -8 -13 0 -18 6 -3 13 1 16 9 3 9
7 23 10 31 3 10 18 15 50 15 37 0 45 -3 45 -18 0 -38 -89 -90 -124 -74 -22 10
-22 8 -18 -49 5 -68 -12 -140 -38 -164 -24 -22 -30 -8 -18 45 12 59 13 126 0
172 -9 34 -7 39 31 82 43 49 57 50 57 7z m904 -24 c4 4 9 -3 12 -14 5 -18 10
-20 30 -12 21 7 24 6 22 -9 -2 -11 5 -18 21 -20 15 -2 21 0 16 7 -3 6 -11 9
-16 6 -5 -4 -9 1 -9 10 0 9 5 13 10 10 6 -3 10 4 11 17 0 13 3 18 5 11 3 -7
11 -10 18 -7 7 3 18 -2 25 -10 10 -12 17 -13 30 -4 14 8 26 7 51 -6 18 -9 41
-16 52 -16 10 0 18 -4 18 -10 0 -5 7 -7 16 -3 13 5 15 2 9 -18 -4 -13 -13 -27
-19 -31 -19 -13 -104 -9 -118 6 -10 10 -19 11 -32 4 -10 -6 -34 -7 -54 -4 -46
8 -58 8 -103 0 -20 -3 -45 -1 -56 4 -11 6 -42 8 -73 4 -44 -6 -57 -12 -65 -29
-17 -40 -37 -28 -33 19 3 36 8 46 43 69 35 24 40 25 43 11 2 -9 9 -21 14 -27
8 -7 9 -4 5 8 -4 12 -1 20 10 24 10 4 19 1 21 -6 3 -8 11 -4 23 10 10 12 19
18 19 14 0 -5 6 -3 12 3 10 10 15 10 24 -2 6 -9 14 -13 18 -9z m-721 -2 c-3
-13 -53 -20 -53 -7 0 15 13 23 35 20 11 -2 19 -7 18 -13z m1587 -2 c-1 -21
-96 -85 -159 -108 -69 -24 -171 -18 -171 11 0 17 37 38 42 24 4 -12 67 8 142
45 52 26 76 31 76 16 0 -5 -25 -19 -55 -31 -30 -12 -55 -26 -55 -31 0 -14 11
-11 67 19 29 15 53 32 53 39 0 13 28 32 48 33 6 0 12 -8 12 -17z m-1500 -27
c0 -18 -49 -35 -75 -26 -18 6 -17 8 10 23 37 20 65 21 65 3z m90 5 c0 -11 -26
-22 -34 -14 -12 12 -5 23 14 23 11 0 20 -4 20 -9z m940 -1 c0 -5 -2 -10 -4
-10 -3 0 -8 5 -11 10 -3 6 -1 10 4 10 6 0 11 -4 11 -10z m-810 -23 c0 -7 -6
-21 -13 -31 -12 -16 -14 -16 -26 -2 -11 13 -11 19 -1 31 15 18 40 20 40 2z
m-288 -44 c16 -14 22 -14 43 -3 27 15 41 9 32 -13 -8 -21 -42 -26 -73 -11 -50
26 -74 11 -34 -23 23 -20 26 -60 6 -85 -24 -32 -38 -22 -31 21 4 22 2 42 -3
45 -6 3 -20 24 -31 47 -17 31 -19 44 -10 55 9 11 17 11 47 -2 20 -8 44 -22 54
-31z m2498 37 c0 -14 -35 -30 -64 -30 -32 0 -34 17 -3 30 30 12 67 12 67 0z
m-2289 -26 c11 -32 -5 -92 -28 -101 -27 -11 -63 14 -63 44 0 33 6 42 40 65 34
23 39 22 51 -8z m1639 17 c0 -10 -19 -69 -30 -96 -5 -11 -13 -35 -18 -54 -4
-19 -13 -36 -20 -39 -18 -6 -16 83 3 102 22 22 18 36 -11 36 -35 0 -27 20 17
42 37 20 59 23 59 9z m-790 -5 c0 -3 -4 -8 -10 -11 -5 -3 -10 -1 -10 4 0 6 5
11 10 11 6 0 10 -2 10 -4z m-1180 -20 c0 -25 -50 -76 -74 -76 -19 0 -23 6 -24
36 -1 33 0 36 22 30 15 -4 28 0 36 9 16 19 40 19 40 1z m547 -5 c18 -23 16
-29 -13 -56 -36 -33 -64 -33 -64 0 0 14 -9 30 -20 37 -36 23 -23 36 33 35 35
0 56 -6 64 -16z m773 -21 c-35 -31 -50 -37 -50 -20 0 16 43 50 64 50 17 0 14
-5 -14 -30z m1060 5 c0 -16 -27 -32 -37 -22 -3 4 -3 13 0 22 8 20 37 20 37 0z
m-3035 -15 c0 -8 9 -23 20 -33 15 -14 17 -20 7 -24 -10 -4 -8 -9 8 -20 12 -8
19 -21 16 -28 -2 -7 2 -16 11 -19 8 -4 13 -12 10 -20 -3 -7 0 -19 6 -26 10
-10 6 -11 -15 -6 -32 7 -40 -13 -8 -21 11 -3 20 -9 20 -14 0 -5 -7 -6 -15 -3
-8 3 -22 -2 -32 -12 -17 -16 -15 -17 34 -12 49 5 73 -4 73 -24 0 -5 -21 -6
-47 -2 -61 8 -92 -15 -134 -97 -16 -32 -34 -59 -39 -59 -6 0 -10 -4 -10 -10 0
-5 7 -7 16 -3 14 5 16 2 10 -23 -4 -16 -11 -64 -16 -106 -5 -49 -13 -83 -24
-93 -17 -18 -22 -30 -7 -20 16 9 21 -10 12 -42 -5 -18 -5 -37 1 -47 11 -20 -3
-68 -27 -92 -19 -20 -19 -35 0 -28 8 4 15 11 15 17 0 8 3 8 11 0 8 -8 9 -20 1
-41 -8 -25 -8 -32 4 -36 12 -5 14 -16 9 -50 -5 -28 -3 -46 4 -50 18 -11 13
-74 -6 -85 -16 -8 -16 -12 -3 -37 11 -20 12 -28 3 -31 -9 -3 -9 -12 -2 -29 8
-23 7 -25 -12 -19 -19 6 -20 5 -9 -14 6 -12 8 -26 5 -31 -3 -6 -1 -10 5 -10 6
0 10 -8 9 -17 -1 -10 1 -25 4 -33 10 -27 14 -70 7 -70 -4 0 -10 10 -14 23 -5
17 -8 19 -15 8 -6 -9 -16 -11 -27 -7 -18 7 -18 8 1 23 20 15 20 15 -2 8 -18
-5 -23 -2 -24 12 -3 43 -7 61 -13 72 -4 6 0 14 9 17 10 4 14 13 10 23 -20 49
-44 154 -38 164 13 20 12 36 -3 48 -17 14 -19 43 -1 36 8 -3 12 6 13 24 1 15
-5 30 -12 33 -17 7 -18 33 -1 40 8 3 7 9 -7 20 -11 9 -16 22 -12 31 7 19 26
11 26 -11 0 -12 4 -12 19 -2 11 7 17 16 15 20 -3 5 -9 6 -14 3 -4 -3 -14 2
-21 11 -10 13 -10 17 1 24 12 7 10 13 -8 33 -31 33 -29 57 3 27 14 -13 25 -19
25 -13 0 6 -7 13 -15 17 -9 3 -15 18 -15 35 0 16 -4 33 -10 36 -6 4 -5 13 2
24 9 15 8 22 -5 36 -9 9 -17 24 -17 32 0 14 2 14 18 0 29 -26 38 -20 12 8
l-23 25 22 19 22 19 -27 31 c-22 27 -24 34 -13 49 7 9 15 19 16 21 2 3 15 -6
31 -20 l27 -24 -22 26 c-13 14 -23 31 -23 37 0 7 -4 12 -10 12 -5 0 -10 -7
-10 -15 0 -8 -4 -15 -10 -15 -5 0 -10 9 -10 20 0 11 5 20 12 20 9 0 9 3 0 12
-28 28 3 83 33 58 8 -7 15 -20 15 -30 0 -10 7 -21 16 -24 12 -4 15 -2 10 9 -3
8 -1 15 4 15 6 0 10 7 10 15 0 8 -4 15 -10 15 -12 0 -30 34 -36 67 -5 25 -5
25 21 -5 14 -16 25 -35 25 -41 0 -19 17 -12 23 9 3 10 -1 24 -9 31 -16 13 -19
43 -4 34 7 -4 9 2 4 19 -5 21 -3 25 10 20 20 -8 20 -5 1 40 -15 35 -10 47 11
26 23 -23 44 1 44 49 0 26 3 51 7 55 12 12 48 2 48 -14z m1857 -3 c-4 -22 16
-31 34 -16 8 6 17 9 21 6 10 -11 -14 -32 -66 -61 -40 -21 -66 -27 -135 -31
-47 -2 -86 0 -86 5 0 16 84 70 109 70 15 0 44 11 66 24 44 26 61 27 57 3z
m-445 -17 c3 -16 9 -30 14 -30 13 0 11 24 -2 37 -8 8 -8 13 0 17 6 4 11 1 11
-7 0 -22 25 -28 48 -12 10 8 22 11 26 8 3 -3 6 -1 6 5 0 7 7 12 15 12 8 0 15
-4 15 -10 0 -5 9 -10 20 -10 22 0 26 -20 9 -52 -9 -18 -8 -19 10 -13 12 3 21
2 21 -4 0 -14 -36 -24 -61 -16 -15 5 -19 4 -15 -4 11 -17 -23 -13 -40 4 -9 8
-13 23 -10 33 4 12 1 19 -7 19 -9 0 -14 -11 -13 -29 1 -15 4 -28 9 -28 4 0 7
-4 7 -10 0 -14 -28 -12 -33 3 -3 9 -9 8 -23 -4 -13 -10 -28 -13 -49 -9 l-30 7
25 10 25 11 -28 11 c-16 6 -30 11 -33 11 -7 0 -46 41 -42 45 8 8 58 13 58 6 0
-3 9 -7 19 -7 11 0 17 4 15 8 -3 4 -2 13 1 18 12 19 25 10 32 -20z m976 15
c13 -12 13 -20 1 -55 -8 -23 -12 -46 -9 -51 9 -13 -39 -11 -53 3 -9 9 -12 6
-12 -15 0 -30 -37 -61 -67 -55 -24 4 -28 41 -7 72 9 15 12 26 6 26 -18 0 -34
-40 -34 -82 1 -39 -8 -45 -42 -32 -19 7 -19 16 -6 65 14 50 53 86 98 92 31 3
41 0 59 -22 l23 -26 -6 32 c-11 57 15 82 49 48z m-1333 -25 c-26 -22 -30 -30
-16 -28 10 2 21 -3 23 -10 3 -8 -5 -12 -24 -11 -15 0 -39 -3 -52 -7 -19 -6
-22 -4 -19 12 4 22 75 73 103 74 16 0 13 -5 -15 -30z m583 8 c3 -10 9 -10 27
0 34 21 38 4 5 -23 -45 -36 -74 -29 -60 15 7 23 21 26 28 8z m1197 2 c0 -5 -2
-10 -4 -10 -3 0 -8 5 -11 10 -3 6 -1 10 4 10 6 0 11 -4 11 -10z m-2201 -77
c-12 -13 -81 -53 -94 -53 -8 0 -6 34 4 49 9 14 79 31 94 23 4 -2 2 -10 -4 -19z
m461 2 c0 -8 -6 -15 -14 -15 -17 0 -28 14 -19 24 12 12 33 6 33 -9z m1640 2
c9 -7 25 -25 37 -40 21 -27 21 -29 5 -46 -9 -10 -23 -15 -31 -13 -8 3 -5 -11
11 -39 14 -24 32 -66 41 -93 16 -47 16 -48 -2 -43 -13 3 -21 -1 -24 -14 -8
-31 -21 -22 -35 24 -19 60 -43 107 -54 107 -6 0 -7 -8 -3 -17 13 -33 13 -142
0 -153 -7 -6 -10 -20 -8 -33 3 -15 -5 -31 -27 -52 l-32 -30 -19 24 c-15 18
-19 39 -19 101 0 88 6 111 25 103 11 -4 12 2 5 28 -10 34 -5 54 6 25 12 -31
22 -16 17 27 -4 38 -3 40 10 24 14 -17 15 -16 23 10 4 15 9 33 10 38 4 27 30
75 39 75 5 0 17 -6 25 -13z m-2615 -7 c3 -5 1 -10 -4 -10 -6 0 -11 5 -11 10 0
6 2 10 4 10 3 0 8 -4 11 -10z m1178 4 c43 -8 50 -24 10 -24 -38 0 -73 10 -73
21 0 11 12 11 63 3z m1152 -4 c3 -6 -1 -7 -9 -4 -18 7 -21 14 -7 14 6 0 13 -4
16 -10z m155 -7 c0 -5 -5 -15 -10 -23 -8 -12 -10 -11 -10 8 0 12 5 22 10 22 6
0 10 -3 10 -7z m-2452 -22 c8 -4 12 -12 10 -17 -1 -5 9 -10 25 -12 29 -4 36
-19 12 -28 -40 -16 11 -54 72 -54 35 0 45 -15 16 -23 -10 -3 -4 -5 14 -6 18 0
36 -7 40 -15 13 -21 53 -31 53 -12 0 26 20 18 34 -14 11 -28 13 -29 33 -15 15
10 24 12 28 5 5 -8 11 -8 20 0 39 32 50 -61 13 -110 -23 -31 -38 -31 -38 1 0
19 -1 19 -23 3 -17 -13 -22 -25 -19 -46 3 -22 -1 -30 -19 -37 -14 -5 -31 -5
-41 0 -9 5 -42 6 -73 3 -61 -7 -73 6 -35 41 11 10 20 29 20 42 0 21 3 23 23
17 12 -4 25 -12 29 -18 5 -7 8 -4 8 7 0 23 17 22 30 -3 20 -37 40 -24 40 25 0
55 -18 68 -76 55 -78 -19 -100 -13 -148 35 -25 25 -43 51 -40 58 3 8 -7 33
-20 58 -14 24 -26 50 -26 57 0 14 19 16 38 3z m868 -11 c8 0 14 5 14 10 0 6
14 10 30 10 17 0 30 -4 30 -9 0 -13 -26 -32 -34 -24 -3 4 -12 -2 -20 -12 -14
-19 -36 -13 -36 11 0 8 -8 14 -17 14 -15 0 -16 2 -3 10 10 6 16 6 18 0 2 -6
10 -10 18 -10z m1552 -34 c7 -32 -6 -48 -28 -36 -21 11 -36 52 -25 70 9 15 49
-11 53 -34z m-1806 7 c3 -16 7 -35 9 -43 2 -9 -4 -16 -17 -18 -16 -2 -23 4
-28 23 -8 33 1 65 19 65 7 0 15 -12 17 -27z m78 -15 c0 -9 3 -9 12 0 16 16 28
15 28 -3 0 -18 31 -35 64 -35 14 0 26 -3 26 -7 -1 -17 -29 -45 -39 -38 -6 3
-11 1 -11 -5 0 -13 -46 -6 -66 11 -8 6 -14 23 -14 38 0 20 -2 23 -10 11 -10
-17 -15 -14 -24 18 -6 18 -3 22 13 22 12 0 21 -5 21 -12z m980 3 c0 -5 16 -5
38 0 20 4 88 8 150 8 100 -1 113 -3 123 -20 5 -11 8 -23 5 -27 -6 -11 65 -6
124 7 24 5 46 8 48 6 2 -2 -2 -13 -8 -25 -15 -28 4 -87 31 -95 19 -6 22 -74
22 -520 0 -14 -1 -38 -1 -54 l-2 -30 -104 2 c-57 1 -103 4 -101 7 2 3 -10 5
-26 5 -16 0 -29 -3 -29 -7 0 -5 -16 -8 -36 -8 -19 0 -33 3 -31 8 3 4 -9 7 -26
7 -28 0 -31 3 -35 39 -3 30 -1 36 10 30 10 -6 11 -5 2 7 -13 16 -24 112 -17
140 5 17 7 16 25 -6 25 -32 34 -31 68 5 24 26 28 37 24 68 -5 35 -5 36 11 17
9 -11 14 -27 12 -36 -3 -12 2 -15 19 -11 13 2 29 10 35 18 6 8 20 14 30 14 11
0 19 7 19 15 0 17 -34 37 -46 27 -5 -4 5 9 22 28 18 19 37 45 43 58 7 12 17
20 23 16 6 -4 8 -3 5 3 -4 6 -1 28 7 49 7 22 13 64 12 94 -1 44 -5 55 -19 58
-10 2 -20 -4 -24 -15 -13 -36 -24 -44 -42 -31 -14 11 -14 11 -4 -3 18 -23 -10
-45 -67 -53 l-45 -7 33 21 c18 11 38 17 44 14 6 -4 8 -3 4 4 -3 5 0 12 6 15 7
2 -5 13 -27 24 -30 16 -43 18 -51 9 -23 -23 -54 -46 -63 -46 -10 0 -42 35 -37
41 2 2 -15 4 -39 4 -24 0 -41 -3 -38 -7 2 -5 0 -8 -5 -8 -5 0 -14 -11 -20 -25
-11 -24 -10 -25 17 -25 36 0 61 -9 61 -22 0 -5 -4 -7 -8 -4 -5 3 -26 6 -48 7
-48 3 -77 16 -68 31 4 7 3 8 -4 4 -10 -6 -17 11 -14 36 2 14 -29 30 -45 23
-10 -5 -20 -8 -23 -7 -3 0 -3 -35 1 -78 5 -76 7 -81 49 -127 24 -26 59 -55 78
-64 20 -10 29 -19 23 -23 -6 -4 -17 -4 -23 0 -7 5 -20 9 -29 9 -20 2 -20 -32
1 -46 12 -9 12 -10 -3 -5 -10 3 -47 6 -82 6 l-64 0 1 63 c1 34 0 105 -1 157
-1 52 -2 125 -2 162 1 65 2 67 29 71 52 8 102 7 102 -2z m-1238 -16 c0 -5 -12
-19 -26 -29 -22 -17 -29 -18 -51 -6 -31 17 -32 30 -2 30 12 0 29 5 37 10 18
12 41 9 42 -5z m1928 -17 c29 -32 48 -84 35 -96 -7 -7 -115 106 -115 121 0 20
54 4 80 -25z m-869 -11 c-10 -9 -11 -8 -5 6 3 10 9 15 12 12 3 -3 0 -11 -7
-18z m-971 5 c0 -36 -86 -66 -125 -45 -15 9 -12 13 21 30 40 21 104 30 104 15z
m1711 -2 c13 -7 19 -7 19 0 0 21 30 9 36 -15 3 -14 10 -25 15 -25 5 0 0 -9
-11 -20 -12 -12 -36 -22 -57 -23 -30 -2 -39 3 -52 25 -14 24 -14 28 3 47 22
24 21 24 47 11z m-1573 -22 c-2 -7 -19 -20 -36 -28 -28 -13 -32 -20 -31 -50 3
-57 0 -70 -16 -70 -8 0 -27 -21 -42 -47 -15 -27 -32 -51 -38 -55 -14 -11 -113
-10 -119 1 -3 5 2 23 10 41 15 29 19 31 51 25 18 -3 43 -3 53 0 23 7 27 35 5
35 -8 0 -15 4 -15 9 0 13 49 51 66 51 7 0 15 13 19 29 6 29 27 54 55 64 26 10
42 7 38 -5z m-968 -59 c0 -6 -4 -7 -10 -4 -5 3 -10 11 -10 16 0 6 5 7 10 4 6
-3 10 -11 10 -16z m1026 -37 c-7 -46 -23 -62 -62 -62 -38 0 -53 16 -32 33 8 7
21 26 27 44 23 58 77 46 67 -15z m-257 19 c16 -10 6 -31 -15 -31 -8 0 -14 9
-14 20 0 22 7 25 29 11z m-539 -10 c0 -4 10 -19 23 -33 18 -20 30 -24 55 -20
18 2 32 8 32 13 0 17 23 9 46 -17 32 -34 31 -68 -3 -92 -62 -42 -111 -28 -99
30 7 34 -6 36 -27 4 -16 -23 -58 -43 -87 -40 -8 1 -21 2 -27 3 -15 1 -18 31
-4 31 5 0 7 9 4 20 -4 13 0 20 10 20 8 0 17 13 21 31 4 21 10 29 20 26 10 -4
12 0 9 14 -4 13 0 19 11 19 9 0 16 -4 16 -9z m1722 -28 c14 -28 25 -36 73 -55
30 -11 39 -13 61 -16 7 -1 26 -30 44 -64 l32 -62 -22 -18 c-25 -21 -57 -20
-52 1 4 18 -31 43 -39 29 -10 -16 -40 -1 -33 16 4 11 -4 17 -27 23 -18 5 -35
15 -37 22 -3 9 2 11 17 6 33 -10 25 5 -9 16 -16 6 -30 15 -30 20 0 11 5 11 53
0 20 -5 37 -5 37 -1 0 4 -16 10 -36 13 -49 8 -64 23 -64 63 0 41 14 44 32 7z
m294 1 c-24 -17 -49 -18 -44 -2 5 13 49 28 58 21 3 -3 -4 -11 -14 -19z m-111
0 c14 -9 25 -23 25 -30 0 -8 7 -14 15 -14 9 0 15 -9 15 -25 0 -29 15 -33 24
-8 6 14 9 15 15 4 6 -9 11 -10 15 -2 12 18 26 13 26 -10 0 -28 24 -19 28 11 3
18 6 20 13 9 7 -11 9 -11 9 4 0 16 56 76 73 77 14 0 7 -19 -20 -52 -21 -25
-22 -28 -5 -14 26 22 41 14 21 -10 -8 -10 -13 -25 -11 -36 2 -10 -2 -18 -8
-18 -6 0 -15 -11 -20 -25 -9 -24 -19 -29 -47 -26 -6 1 -14 -3 -18 -9 -10 -16
-25 -12 -25 7 0 12 -3 14 -11 6 -8 -8 -8 -17 0 -31 12 -23 2 -35 -22 -26 -11
4 -16 -5 -21 -31 -7 -36 -8 -36 -27 -19 -18 16 -19 16 -19 -3 0 -12 -7 -23
-15 -27 -12 -4 -14 0 -9 22 9 35 33 72 48 72 6 0 3 5 -7 11 -14 8 -16 14 -6
25 9 11 8 14 -5 14 -9 0 -16 5 -16 10 0 6 7 10 16 10 8 0 13 4 10 9 -3 5 -15
7 -25 4 -27 -7 -35 13 -20 49 12 30 11 33 -21 60 -25 20 -30 28 -17 28 10 0
29 -7 42 -16z m553 4 c21 -21 14 -139 -12 -218 -14 -40 -27 -74 -30 -77 -14
-14 -36 10 -51 57 -19 56 -14 75 11 44 15 -18 15 -18 11 3 -3 13 -1 25 4 29 5
3 2 18 -6 34 -17 33 -20 60 -6 60 5 0 12 -13 16 -30 4 -16 11 -33 17 -37 7 -4
9 -1 6 8 -30 81 -33 92 -20 96 6 3 12 13 12 24 0 22 29 26 48 7z m-1298 -38
c0 -16 -4 -30 -10 -30 -5 0 -10 14 -10 30 0 17 5 30 10 30 6 0 10 -13 10 -30z
m226 -6 c-19 -28 -20 -35 -3 -31 15 3 15 -7 -2 -61 -8 -23 -19 -42 -25 -41 -6
1 -20 1 -31 0 -20 -2 -20 -2 0 -13 32 -19 59 -47 51 -55 -9 -10 -119 20 -123
33 -2 7 8 15 22 18 19 5 25 12 21 22 -3 9 -6 21 -7 27 -1 7 -4 1 -8 -12 -8
-29 -31 -40 -31 -16 0 15 -1 15 -16 1 -19 -20 -18 -20 -93 5 -58 20 -66 20
-95 7 -17 -9 -47 -19 -66 -23 -19 -4 -45 -13 -57 -21 -37 -23 -30 10 7 38 38
28 38 36 -2 40 -24 2 -34 9 -36 23 -2 15 -1 17 6 6 9 -12 24 -12 103 2 59 9
100 12 111 6 24 -13 115 -11 124 2 3 6 16 9 28 7 12 -3 28 2 35 9 17 18 34 7
22 -15 -6 -12 -4 -21 6 -31 13 -12 14 -11 8 8 -5 15 -1 29 12 43 17 20 17 21
1 15 -12 -4 -18 -1 -18 9 0 9 6 14 12 12 7 -3 19 1 26 9 22 21 35 4 18 -23z
m74 16 c13 -25 5 -40 -20 -40 -19 0 -36 32 -25 50 10 17 34 11 45 -10z m1210
-46 c0 -8 6 -14 13 -14 8 0 7 -3 -3 -10 -20 -12 -39 6 -33 30 6 22 23 17 23
-6z m-1880 -3 c0 -25 -43 -69 -85 -87 -23 -9 -33 -19 -29 -29 12 -29 -97 -42
-144 -16 -23 12 -21 36 3 28 13 -6 121 30 172 57 18 9 40 28 49 41 19 30 34
32 34 6z m780 15 c0 -2 -7 -6 -15 -10 -8 -3 -15 -1 -15 4 0 6 7 10 15 10 8 0
15 -2 15 -4z m1208 -42 c32 -9 27 -24 -8 -24 -23 0 -30 -4 -30 -20 0 -13 5
-18 15 -14 24 10 49 -4 37 -19 -8 -9 -6 -16 9 -25 23 -14 26 -37 3 -28 -11 4
-14 1 -13 -12 4 -27 -11 -111 -22 -117 -5 -4 -9 -18 -9 -33 0 -15 -15 -51 -32
-79 -18 -29 -58 -91 -88 -140 -30 -48 -68 -102 -83 -120 -17 -19 -24 -34 -17
-38 5 -3 13 1 16 9 3 9 13 16 20 16 8 0 19 10 23 23 8 20 10 20 16 4 8 -19
-10 -47 -31 -47 -8 0 -14 -4 -14 -9 0 -5 -10 -12 -22 -15 -13 -4 -41 -29 -63
-57 -57 -71 -87 -100 -99 -96 -6 3 -18 -1 -26 -9 -8 -7 -21 -14 -29 -16 -8 -2
-39 -16 -70 -31 -52 -27 -56 -27 -68 -11 -7 10 -12 23 -10 28 2 6 37 23 78 39
41 15 78 32 83 38 18 16 -29 10 -77 -11 -63 -28 -116 -15 -101 23 5 14 45 30
79 32 6 1 20 6 33 13 12 7 22 10 22 7 0 -4 18 8 40 25 22 17 40 38 40 46 0 8
7 17 15 20 8 3 17 14 20 25 4 10 13 19 21 19 13 0 12 -7 -6 -37 -20 -35 -18
-34 32 18 59 60 111 131 122 167 4 12 18 34 30 50 13 15 27 38 31 52 4 14 18
39 31 57 27 36 31 58 10 50 -23 -9 -38 18 -31 56 6 29 4 35 -13 39 -29 8 -37
59 -17 98 24 47 90 70 153 54z m-3058 -45 c0 -6 -4 -7 -10 -4 -5 3 -10 11 -10
16 0 6 5 7 10 4 6 -3 10 -11 10 -16z m186 -34 c6 -25 -9 -55 -27 -55 -10 0
-12 63 -2 73 13 13 23 7 29 -18z m172 19 c12 -4 22 -9 22 -13 0 -24 -110 -49
-139 -31 -24 14 7 43 41 38 16 -3 31 -1 34 4 6 9 11 10 42 2z m1002 -13 c0 -5
-3 -23 -6 -40 -5 -25 -11 -31 -28 -29 -39 6 -19 77 22 78 6 0 12 -4 12 -9z
m-890 -11 c13 -9 12 -12 -4 -25 -22 -17 -72 -20 -81 -6 -6 11 33 41 55 41 8 0
22 -5 30 -10z m110 1 c0 -5 8 -7 19 -4 29 7 36 -16 12 -40 -16 -17 -23 -19
-33 -9 -7 7 -20 12 -29 12 -9 0 -22 7 -29 15 -10 12 -8 16 11 24 31 13 49 13
49 2z m1780 -11 c0 -5 -7 -10 -15 -10 -8 0 -15 5 -15 10 0 6 7 10 15 10 8 0
15 -4 15 -10z m-1311 -56 c-13 -16 -79 -19 -79 -4 0 6 10 14 23 19 13 5 29 17
37 26 13 16 15 15 22 -5 5 -14 4 -28 -3 -36z m1792 40 c11 -13 10 -20 -5 -42
-9 -15 -22 -39 -27 -54 -6 -16 -15 -28 -21 -28 -6 0 -8 6 -5 13 3 6 12 29 21
50 21 47 14 47 -15 0 -30 -49 -36 -25 -8 32 24 48 38 55 60 29z m-1117 -33 c3
-4 3 -11 0 -14 -8 -7 -44 4 -44 14 0 12 37 12 44 0z m630 -23 c-5 -8 -34 -11
-34 -4 0 2 -3 11 -6 20 -5 13 -2 13 19 3 14 -6 23 -15 21 -19z m-1991 5 c12
-7 -1 -52 -24 -84 -10 -15 -19 -32 -19 -38 0 -18 -54 -61 -77 -61 -26 0 -30
22 -8 40 8 7 15 21 15 32 0 10 12 31 26 45 17 17 27 37 26 55 -1 25 2 27 26
22 15 -4 31 -9 35 -11z m115 -20 c-9 -60 -50 -137 -75 -141 -18 -3 -22 -10
-22 -35 0 -92 -7 -159 -19 -166 -8 -5 -11 -17 -7 -33 7 -28 -18 -98 -35 -98
-13 0 -4 58 11 74 16 17 10 29 -11 23 -16 -4 -20 0 -20 20 0 18 4 24 15 19 11
-4 15 2 15 24 0 17 5 30 10 30 6 0 10 4 10 8 0 5 -7 9 -15 9 -8 0 -15 -9 -15
-19 0 -11 -5 -18 -12 -16 -15 5 -21 95 -7 104 5 3 9 -3 9 -13 0 -26 31 35 35
70 2 15 13 42 24 61 12 18 21 45 21 58 0 20 8 29 38 41 53 22 55 21 50 -20z
m419 23 c-2 -6 -29 -12 -60 -14 -46 -2 -57 0 -57 12 0 13 12 15 60 14 38 -1
59 -6 57 -12z m1973 7 c0 -18 -55 -116 -58 -101 -4 19 36 108 49 108 5 0 9 -3
9 -7z m-2645 -51 c-13 -99 -60 -181 -87 -154 -10 10 -10 17 0 33 8 12 9 18 3
14 -18 -11 -13 62 6 80 13 13 13 19 4 25 -8 4 -10 16 -7 27 4 14 16 19 47 20
l40 2 -6 -47z m319 37 c11 18 26 13 26 -8 0 -11 -10 -27 -22 -35 -21 -15 -21
-16 -3 -17 11 -1 37 0 58 1 21 1 44 -3 51 -9 8 -7 30 -12 50 -13 20 -1 36 -5
36 -10 0 -4 7 -8 15 -8 8 0 15 -4 15 -10 0 -5 5 -10 10 -10 6 0 21 -9 32 -20
l22 -20 21 20 c17 17 18 22 6 30 -12 7 -9 11 12 21 15 7 27 16 27 20 0 5 -16
-1 -35 -12 -26 -16 -44 -19 -70 -15 -62 12 -38 47 35 51 19 1 47 5 63 9 19 6
27 5 27 -5 0 -8 6 -5 14 6 14 19 15 19 35 1 12 -11 21 -14 21 -8 0 7 13 12 30
12 32 0 50 -22 50 -64 0 -32 -29 -36 -37 -5 -4 15 -11 19 -26 15 -12 -3 -27 0
-34 6 -11 9 -15 7 -20 -10 -3 -12 -10 -22 -15 -22 -5 0 -23 -16 -41 -35 -28
-30 -38 -34 -88 -36 -30 -1 -60 0 -65 4 -5 3 -20 -10 -33 -28 l-23 -34 22 -35
c16 -27 19 -40 11 -54 -9 -16 -7 -19 7 -18 14 1 17 -10 20 -68 3 -82 -12 -106
-65 -106 -40 0 -41 6 -8 32 28 22 51 58 37 58 -5 0 -14 -11 -20 -24 -12 -26
-52 -42 -52 -21 0 8 -8 11 -20 8 -11 -3 -20 0 -20 6 0 6 5 11 10 11 6 0 18 16
27 35 16 34 33 46 33 23 0 -6 3 -8 6 -5 4 4 -1 18 -11 33 -12 18 -15 36 -10
60 3 21 2 34 -5 34 -5 0 -10 -9 -10 -21 0 -29 -18 -59 -35 -59 -8 0 -15 -7
-15 -15 0 -9 6 -12 15 -9 17 7 19 -4 6 -25 -12 -18 -81 -25 -81 -7 0 20 30 76
41 76 5 0 9 6 9 13 0 7 9 29 19 50 10 20 15 37 10 37 -5 0 -14 -11 -19 -25
-16 -42 -28 -28 -17 19 9 38 7 46 -11 64 -20 20 -21 20 -37 2 -18 -20 -48
-145 -46 -192 2 -33 -14 -37 -29 -8 -16 30 15 155 51 207 17 24 25 44 19 48
-5 3 -15 -3 -22 -15 -16 -25 -38 -26 -38 -2 0 24 16 46 28 38 6 -4 16 3 22 14
6 11 7 20 3 20 -11 0 -9 42 1 59 7 10 10 10 16 1 5 -9 9 -9 14 -1z m220 -12
c-20 -35 -37 -46 -55 -36 -27 14 -23 27 14 43 35 14 51 12 41 -7z m406 7 c0
-8 -5 -12 -10 -9 -6 4 -8 11 -5 16 9 14 15 11 15 -7z m950 6 c0 -5 -4 -10 -10
-10 -5 0 -10 5 -10 10 0 6 5 10 10 10 6 0 10 -4 10 -10z m60 1 c0 -5 -7 -14
-15 -21 -13 -10 -15 -9 -15 9 0 12 6 21 15 21 8 0 15 -4 15 -9z m710 -17 c0
-18 -34 -104 -41 -104 -14 0 -10 36 8 75 14 30 33 47 33 29z m26 -26 c-4 -13
-10 -40 -13 -60 -3 -21 -9 -35 -14 -32 -13 7 -11 42 3 81 13 37 34 46 24 11z
m-676 -14 c0 -16 -16 -19 -25 -4 -8 13 4 32 16 25 5 -4 9 -13 9 -21z m-150
-31 c11 -12 23 -233 13 -233 -5 0 -25 12 -44 26 -19 14 -55 36 -80 49 l-46 24
-51 -37 c-76 -55 -138 -92 -154 -92 -9 0 -27 9 -41 20 -31 25 -38 25 -70 0
l-26 -21 -3 137 c-2 74 -1 137 1 140 8 7 493 -4 501 -13z m850 -28 c-7 -8 -16
-12 -21 -9 -13 8 -1 24 18 24 13 0 13 -3 3 -15z m160 -19 c0 -13 -6 -26 -13
-29 -10 -4 -12 3 -9 24 5 35 22 39 22 5z m-2062 -9 c3 -13 -4 -17 -26 -17 -35
0 -45 -9 -31 -26 15 -18 1 -61 -28 -83 -25 -21 -50 -21 -97 -2 -44 18 -51 9
-22 -26 14 -17 26 -35 26 -41 0 -6 4 -12 8 -14 4 -1 27 -31 51 -65 24 -34 49
-64 57 -67 8 -3 14 -13 14 -22 0 -12 6 -15 20 -10 11 3 29 9 40 12 15 5 22 0
29 -18 14 -37 73 -68 114 -61 34 5 60 -12 41 -26 -5 -3 -9 -12 -10 -18 -2 -29
-5 -33 -20 -33 -14 0 -14 -3 -4 -15 10 -12 10 -18 0 -30 -7 -8 -17 -12 -23 -8
-6 4 -32 11 -57 15 -91 18 -100 21 -100 33 0 7 -8 12 -17 11 -12 -1 -21 10
-28 32 -5 19 -16 32 -25 32 -21 0 -40 20 -40 42 0 10 -5 17 -12 16 -6 -2 -16
6 -22 18 -6 11 -16 19 -22 17 -6 -2 -25 12 -43 32 -30 35 -41 78 -21 90 6 3
-1 17 -15 31 -28 28 -30 36 -15 64 8 16 8 18 -5 14 -17 -7 -19 4 -5 26 8 13
11 13 19 1 7 -11 12 -8 26 13 14 20 25 26 54 26 42 0 68 16 73 45 3 16 11 20
40 20 20 0 40 4 44 8 12 11 29 3 32 -16z m1844 7 c4 -3 -1 -19 -10 -35 -14
-25 -15 -31 -3 -38 11 -7 10 -17 -11 -57 -37 -74 -92 -154 -105 -154 -16 0
-16 6 -2 32 16 30 49 153 49 183 0 41 60 91 82 69z m33 -24 c-10 -11 -20 -18
-23 -15 -7 6 18 35 31 35 5 0 2 -9 -8 -20z m-2355 -26 c0 -3 -5 -15 -12 -27
-6 -12 -10 -39 -10 -60 2 -39 -21 -97 -38 -97 -12 0 -13 -6 6 86 9 44 21 85
26 92 11 12 28 17 28 6z m2597 -54 c3 -16 12 -30 19 -30 8 0 14 -7 14 -15 0
-8 7 -15 15 -15 8 0 15 -9 15 -20 0 -11 5 -20 11 -20 5 0 7 5 4 10 -3 6 -2 10
4 10 6 0 15 -9 21 -20 6 -11 15 -18 20 -15 10 6 43 -55 34 -64 -6 -7 -114 50
-161 86 -34 24 -40 50 -27 101 9 31 23 27 31 -8z m-2912 12 c6 -4 10 -11 10
-17 0 -5 4 -38 8 -72 5 -39 4 -70 -2 -82 -7 -13 -7 -21 -1 -23 7 -2 7 -20 0
-53 -6 -28 -13 -65 -16 -84 -5 -33 -59 -109 -66 -93 -2 4 -5 33 -7 64 -2 46 1
59 13 64 9 3 16 10 16 15 0 4 -7 6 -17 2 -14 -6 -15 0 -9 43 3 27 11 51 16 52
6 2 10 8 10 13 0 6 -4 7 -10 4 -6 -4 -10 9 -10 32 0 28 3 34 10 23 7 -11 10
-6 10 22 0 20 5 40 10 43 6 3 10 17 10 31 0 25 7 29 25 16z m-35 -16 c0 -18
-17 -29 -30 -21 -8 5 -7 11 1 21 15 18 29 18 29 0z m1785 -27 c57 -30 72 -46
57 -61 -8 -8 -15 -8 -25 1 -12 9 -16 7 -20 -9 -7 -28 -26 -25 -37 5 -12 30
-14 31 -41 4 -23 -23 -45 -21 -43 5 2 20 -10 21 -26 1 -7 -8 -19 -15 -26 -15
-26 0 -14 19 25 44 22 14 42 30 46 36 10 16 47 12 90 -11z m-1835 -35 c0 -13
-4 -24 -10 -24 -5 0 -10 14 -10 31 0 17 4 28 10 24 6 -3 10 -17 10 -31z m2870
26 c0 -5 -4 -10 -10 -10 -5 0 -10 5 -10 10 0 6 5 10 10 10 6 0 10 -4 10 -10z
m-30 -35 c0 -14 -7 -28 -15 -31 -8 -4 -15 -12 -15 -20 0 -8 -8 -22 -18 -32
-10 -10 -22 -26 -25 -36 -4 -9 -11 -15 -16 -12 -10 7 -2 56 9 56 5 0 13 14 19
31 6 17 15 28 21 24 5 -3 10 2 10 13 0 10 3 22 7 25 13 14 23 6 23 -18z
m-1334 -51 c-16 -11 -17 -17 -8 -26 10 -10 17 -10 32 0 10 6 21 8 24 3 9 -13
-32 -44 -49 -38 -9 4 -15 1 -15 -8 0 -8 -5 -15 -12 -15 -6 0 -9 -2 -7 -5 3 -2
24 2 47 8 24 7 40 15 37 19 -9 9 23 30 60 38 40 9 41 8 19 -25 -9 -14 -12 -25
-6 -25 5 0 12 7 16 15 8 22 47 34 68 22 13 -9 21 -6 37 14 11 13 20 18 21 11
0 -8 8 -10 25 -6 39 10 30 -12 -15 -34 -36 -18 -38 -20 -18 -25 13 -4 29 0 40
9 10 10 22 13 30 8 7 -4 34 -7 60 -6 42 1 48 -2 48 -18 0 -16 -7 -20 -37 -21
-185 -5 -287 -10 -291 -14 -3 -3 70 -5 162 -5 154 0 167 -1 164 -17 -2 -14
-14 -18 -48 -20 -25 -1 -70 -5 -100 -9 -49 -7 -52 -8 -25 -14 l30 -7 -25 -11
-25 -11 31 0 c16 -1 35 4 42 11 16 16 92 20 92 5 0 -7 -9 -27 -20 -44 l-20
-33 -97 0 c-53 0 -135 -5 -181 -12 l-84 -12 -24 29 c-32 40 -30 48 9 41 95
-18 107 -18 107 -6 0 12 33 10 95 -6 16 -4 17 -3 5 5 -8 6 -25 11 -37 11 -38
0 -26 17 16 24 22 3 42 10 45 15 7 11 -116 -17 -124 -28 -7 -11 -143 10 -152
23 -13 19 3 26 60 26 31 0 64 5 72 10 10 7 -10 10 -66 10 l-81 0 -7 46 c-7 53
-1 67 24 59 10 -3 20 0 23 9 4 10 1 13 -9 9 -23 -9 -17 34 8 51 20 14 24 14
38 0 13 -14 13 -17 -4 -30z m454 5 c0 -20 -15 -26 -24 -10 -8 13 4 42 15 35 5
-3 9 -14 9 -25z m-1950 -16 c0 -7 -4 -13 -10 -13 -5 0 -10 12 -10 28 0 21 2
24 10 12 5 -8 10 -21 10 -27z m2041 20 c13 -16 12 -17 -3 -4 -10 7 -18 15 -18
17 0 8 8 3 21 -13z m194 6 c11 -17 -1 -21 -15 -4 -8 9 -8 15 -2 15 6 0 14 -5
17 -11z m79 -14 c10 -14 26 -25 35 -26 11 0 12 -2 3 -6 -8 -3 -26 6 -40 20
-15 13 -34 27 -42 30 -11 4 -9 6 5 6 11 1 29 -10 39 -24z m-1089 4 c11 -16 1
-19 -13 -3 -7 8 -8 14 -3 14 5 0 13 -5 16 -11z m63 -14 c-3 -3 -9 2 -12 12 -6
14 -5 15 5 6 7 -7 10 -15 7 -18z m893 -2 c13 -16 12 -17 -3 -4 -17 13 -22 21
-14 21 2 0 10 -8 17 -17z m-306 -13 c-3 -5 -10 -10 -16 -10 -5 0 -9 5 -9 10 0
6 7 10 16 10 8 0 12 -4 9 -10z m43 -2 c-2 -6 -10 -14 -16 -16 -7 -2 -10 2 -6
12 7 18 28 22 22 4z m1156 -63 c41 -19 80 -35 86 -35 10 0 25 -30 75 -145 7
-16 24 -57 38 -90 50 -117 63 -243 29 -285 l-18 -22 -27 23 c-15 14 -44 65
-67 122 -49 118 -72 155 -139 225 -31 32 -51 61 -51 75 0 13 -7 32 -15 43 -20
26 -20 124 0 124 8 0 48 -16 89 -35z m-1931 12 c-4 -6 -1 -7 7 -2 8 5 54 8
104 8 l91 0 3 -34 c2 -19 10 -56 19 -82 21 -67 6 -79 -41 -33 -34 35 -54 47
-41 25 4 -5 -1 -19 -11 -30 -14 -16 -26 -19 -55 -14 l-37 6 3 -43 c3 -44 -9
-73 -28 -61 -6 3 -7 1 -3 -5 5 -8 -1 -12 -16 -12 -13 0 -34 -3 -47 -7 -23 -6
-23 -6 -7 20 12 18 16 42 14 88 -3 60 -5 65 -37 87 -42 27 -63 25 -72 -8 -9
-31 -9 -29 -12 48 l-3 63 88 -2 c53 -2 85 -6 81 -12z m2245 -34 c45 -15 82
-30 82 -34 0 -20 -201 38 -208 60 -5 16 6 14 126 -26z m-944 11 c6 -16 -16
-58 -26 -49 -7 7 3 65 12 65 4 0 11 -7 14 -16z m-2172 -56 c5 -118 -14 -230
-36 -207 -9 9 -14 69 -5 69 5 0 9 7 9 15 0 8 -5 15 -11 15 -8 0 -9 16 -5 50
13 100 44 137 48 58z m104 -16 c-9 -17 -16 -38 -16 -46 0 -25 -33 -87 -44 -82
-6 2 -10 8 -9 13 1 6 7 39 12 73 12 73 36 109 59 87 12 -13 12 -19 -2 -45z
m295 -4 c22 -12 39 -28 39 -35 0 -34 -132 -45 -138 -12 -3 17 36 68 52 69 4 0
26 -10 47 -22z m-131 -33 c-7 -21 -10 -55 -7 -76 4 -31 2 -39 -11 -39 -30 0
-62 41 -62 79 0 46 10 61 46 67 16 3 31 7 33 10 11 11 12 -8 1 -41z m2265 -51
c-20 -48 -21 -54 -6 -34 11 14 30 46 42 73 12 26 26 47 30 47 13 0 -1 -61 -23
-101 -11 -20 -18 -47 -16 -60 3 -20 9 -13 32 39 33 71 52 81 42 22 -4 -27 -3
-40 5 -40 7 0 9 -12 4 -36 -7 -42 6 -39 25 6 7 16 16 30 21 30 15 0 -3 -93
-27 -143 -27 -56 -28 -57 -13 -57 9 0 40 62 63 124 3 10 9 16 13 13 5 -6 -18
-75 -53 -154 -7 -18 -10 -33 -5 -33 6 0 13 9 16 20 3 11 11 20 16 20 12 0 11
-6 -7 -41 -8 -17 -13 -33 -10 -36 2 -3 17 19 32 49 18 34 29 47 32 36 2 -9 -8
-39 -22 -67 -28 -55 -31 -65 -16 -56 6 4 24 34 40 68 25 52 29 56 24 27 -3
-19 -18 -56 -32 -83 -14 -26 -22 -50 -19 -53 3 -4 18 19 34 50 15 31 31 56 35
56 12 0 10 -5 -19 -78 -27 -69 -39 -85 -60 -77 -7 2 -40 -9 -73 -26 -57 -28
-61 -29 -85 -13 -14 9 -28 14 -32 10 -3 -3 -1 -6 5 -6 7 0 12 -7 12 -16 0 -18
-10 -17 -75 10 -34 14 -37 14 -21 1 11 -8 24 -15 30 -15 6 0 5 -5 -2 -12 -9
-9 -19 -6 -44 12 l-33 24 18 -27 c15 -23 15 -27 2 -27 -8 0 -22 11 -30 24 -9
13 -24 27 -33 31 -10 4 -5 -6 12 -24 27 -28 27 -36 4 -32 -5 0 -8 -4 -8 -11 0
-6 -9 -3 -20 7 -11 10 -22 16 -25 13 -3 -3 1 -11 10 -18 19 -16 19 -30 1 -30
-7 0 -19 14 -26 30 -14 34 -41 42 -33 10 3 -11 1 -20 -4 -20 -5 0 -7 -15 -5
-32 2 -18 -1 -44 -6 -58 -6 -17 -5 -38 4 -65 7 -22 21 -83 29 -135 9 -52 21
-99 26 -104 5 -6 -1 -21 -19 -39 -25 -28 -25 -29 -4 -17 32 16 42 4 13 -17
-18 -12 -20 -17 -10 -24 11 -6 10 -12 -4 -27 -26 -28 -20 -36 9 -13 15 11 30
18 35 15 14 -8 10 -44 -5 -44 -20 0 -105 -94 -164 -182 -54 -79 -84 -108 -114
-108 -25 0 -22 19 5 29 20 8 20 10 4 16 -10 4 -37 0 -60 -8 -45 -17 -139 -24
-172 -14 -27 9 -45 40 -38 65 8 31 26 33 87 11 67 -23 82 -23 143 -3 53 18 95
59 87 87 -4 12 0 17 15 17 18 0 48 35 43 51 0 4 9 18 21 31 29 32 52 76 44 85
-4 3 -7 -1 -7 -11 0 -9 -4 -14 -10 -11 -5 3 -10 29 -10 56 0 28 4 48 9 44 5
-3 12 -1 16 5 3 5 -1 10 -11 10 -13 0 -15 7 -10 38 3 20 3 31 0 25 -7 -17 -28
-17 -21 0 2 6 7 23 11 37 6 24 6 24 -9 -2 -27 -48 -32 -28 -9 39 6 16 5 16 -9
-2 -15 -18 -16 -19 -17 -2 0 11 -4 15 -11 11 -8 -5 -10 1 -7 19 3 15 1 24 -3
21 -5 -3 -9 -14 -9 -25 0 -10 -5 -19 -10 -19 -16 0 -5 86 15 117 17 28 17 27
-11 -3 -16 -16 -30 -43 -32 -58 -1 -15 -4 -32 -8 -37 -10 -16 -24 -9 -24 12 0
13 -4 18 -12 13 -8 -5 -9 5 -5 35 4 36 3 40 -7 25 -11 -15 -14 -12 -20 25 -3
23 -2 50 4 61 13 23 13 40 0 20 -14 -22 -23 -5 -10 19 15 28 28 26 36 -5 l7
-27 13 25 c7 14 28 35 46 47 42 26 24 28 -19 1 -24 -14 -33 -16 -33 -7 0 7 16
21 36 30 19 10 32 22 29 27 -9 14 -26 12 -23 -2 2 -7 -8 -13 -22 -14 -14 -1
-36 -6 -49 -10 -40 -12 -15 13 39 41 58 30 72 31 68 8 -3 -19 4 -20 62 -4 19
5 29 9 22 10 -7 1 -11 5 -8 10 4 5 -12 12 -34 16 -22 4 -40 9 -40 12 0 3 26
31 57 62 32 31 57 58 56 61 -1 3 12 13 30 22 69 37 -15 11 -95 -30 -5 -2 -8 1
-8 6 0 5 19 22 43 37 23 16 52 39 64 52 12 12 29 23 36 23 8 0 17 7 21 15 3 9
0 15 -9 15 -21 0 -19 9 11 36 14 13 23 28 20 33 -3 4 6 19 20 32 14 13 46 54
70 92 40 61 64 83 64 57 0 -5 -14 -32 -31 -60 -17 -28 -28 -54 -25 -57 9 -10
64 57 72 87 4 14 12 31 18 39 23 29 17 -25 -9 -85z m-2609 -6 c-12 -187 -21
-228 -51 -228 -11 0 -14 13 -12 58 1 31 5 62 8 67 5 9 5 35 0 91 0 8 -5 12
-11 9 -6 -4 -10 5 -10 19 0 14 5 26 10 26 6 0 10 -7 10 -16 0 -8 5 -12 11 -9
6 4 8 14 5 22 -8 20 11 53 30 53 14 0 15 -13 10 -92z m234 44 c0 -20 -7 -61
-15 -91 -8 -30 -12 -58 -10 -62 3 -4 -2 -12 -11 -19 -9 -9 -11 -16 -5 -20 10
-6 9 -13 -17 -90 -6 -16 -8 -28 -10 -47 -1 -7 -6 -13 -11 -13 -5 0 -9 19 -10
43 0 23 -3 64 -6 90 -4 37 -1 49 10 54 14 5 14 7 -1 17 -15 11 -14 18 15 72
17 32 35 72 41 87 13 37 30 25 30 -21z m610 33 c0 -8 -4 -15 -9 -15 -13 0 -22
16 -14 24 11 11 23 6 23 -9z m-280 -69 c0 -8 9 -16 20 -19 29 -8 24 -24 -9
-32 -45 -10 -111 11 -111 35 0 20 40 38 59 26 5 -4 12 -2 16 4 8 13 25 3 25
-14z m565 -6 c5 -15 12 -18 36 -13 27 5 29 3 29 -25 0 -17 6 -32 15 -36 19 -7
19 -33 1 -43 -8 -4 -14 -17 -13 -28 2 -25 -34 -33 -52 -11 -15 18 -7 36 16 36
13 0 13 3 3 15 -10 12 -10 19 -2 27 8 8 5 15 -15 25 -33 17 -61 17 -79 -2 -21
-21 -56 -2 -52 28 2 16 10 22 28 21 13 -1 30 5 38 12 19 20 40 17 47 -6z
m-717 4 l23 -7 -22 -23 c-30 -32 -39 -30 -39 6 0 32 2 33 38 24z m1492 -18 c0
-8 3 -21 6 -30 4 -10 1 -16 -9 -16 -8 0 -17 -7 -21 -15 -10 -26 -21 -16 -21
18 0 17 7 37 15 44 20 16 30 16 30 -1z m-2000 -17 c0 -5 -8 -9 -17 -9 -13 0
-14 -3 -5 -12 18 -18 15 -79 -5 -94 -27 -20 -46 -17 -40 6 3 10 -1 24 -9 31
-19 15 -18 33 2 25 8 -3 13 -2 10 3 -7 11 46 71 57 64 4 -2 7 -8 7 -14z m1362
-44 c4 -5 4 -13 2 -17 -5 -8 -54 44 -54 57 0 8 39 -22 52 -40z m218 30 c7 -8
9 -22 6 -31 -5 -13 -1 -14 24 -9 18 4 30 2 30 -3 0 -25 -59 -23 -107 2 -26 14
-58 26 -70 26 -30 0 -30 17 0 23 52 10 105 6 117 -8z m103 2 c19 0 25 -3 18
-10 -11 -11 -75 -12 -91 -2 -22 14 -9 27 18 19 15 -4 40 -8 55 -7z m-1127 -16
c5 -5 20 -11 34 -13 37 -5 31 -31 -10 -45 -34 -12 -90 -8 -120 7 -9 5 -23 2
-35 -6 -23 -17 -81 -18 -91 -2 -4 6 -3 13 3 15 6 2 8 14 5 25 -4 18 -2 20 14
13 36 -15 69 -15 119 -1 62 18 69 18 81 7z m668 3 c21 -8 21 -48 0 -68 -14
-15 -14 -17 0 -32 9 -8 16 -22 16 -30 0 -19 -49 -19 -56 1 -4 10 -15 12 -36 8
-29 -6 -31 -5 -26 20 3 15 2 27 -1 27 -4 0 -16 6 -26 14 -19 14 -19 15 -1 35
14 16 23 18 37 10 11 -5 19 -16 19 -24 0 -16 39 -60 46 -52 2 2 -5 12 -16 22
-43 39 -10 90 44 69z m-471 -25 c41 -11 49 -33 15 -43 -36 -9 -51 -7 -77 13
-44 34 -11 50 62 30z m1065 -29 c10 -17 10 -20 -3 -20 -8 0 -15 2 -15 4 0 2
-3 11 -6 20 -9 23 9 20 24 -4z m-393 -10 c14 -15 15 -23 6 -34 -13 -16 5 -40
39 -51 12 -4 20 -15 20 -28 0 -21 -67 -109 -105 -137 -22 -17 -136 -52 -144
-45 -2 3 8 19 24 35 28 30 28 30 6 30 -16 0 -21 -4 -17 -15 7 -20 -32 -47 -53
-36 -9 5 -31 6 -48 4 -26 -4 -33 -2 -33 12 0 11 -5 15 -15 11 -9 -3 -24 3 -35
14 -11 11 -23 20 -28 20 -15 0 -41 40 -36 54 3 8 -3 16 -17 19 -19 5 -21 11
-16 41 3 20 2 38 -3 41 -4 3 -11 -13 -15 -35 -9 -53 -25 -51 -25 3 0 46 12 73
28 63 5 -3 12 3 15 14 11 42 33 12 56 -76 7 -26 22 -49 43 -65 63 -47 72 -50
24 -6 -47 43 -70 87 -43 87 6 -1 40 -28 75 -61 52 -49 61 -63 52 -75 -10 -11
-9 -14 9 -14 11 0 21 3 21 8 0 4 11 14 24 22 14 8 49 39 79 68 31 28 60 52 65
52 16 0 23 -31 11 -47 -7 -7 -10 -16 -7 -18 9 -9 25 19 32 54 5 28 2 37 -24
61 -28 26 -27 51 2 34 7 -4 8 -3 4 4 -12 20 10 13 29 -8z m-1505 -11 c0 -5 -7
-9 -15 -9 -15 0 -20 12 -9 23 8 8 24 -1 24 -14z m758 0 c2 -12 -10 -20 -43
-28 -47 -12 -85 -8 -85 9 0 5 16 12 35 16 19 3 38 11 41 16 9 15 48 5 52 -13z
m370 3 c2 -7 -6 -12 -17 -12 -21 0 -27 11 -14 24 9 9 26 2 31 -12z m752 -24
c0 -5 -5 -8 -11 -8 -6 0 -4 -7 5 -15 21 -22 29 -18 22 10 -5 20 -3 25 14 25
23 0 38 -45 23 -69 -7 -11 -6 -19 3 -26 11 -8 11 -15 1 -35 -10 -20 -20 -25
-49 -24 -20 1 -44 4 -52 7 -20 8 -21 46 -1 53 10 4 12 10 6 18 -8 9 -15 72
-12 99 1 10 50 -25 51 -35z m60 32 c0 -5 -5 -10 -11 -10 -5 0 -7 5 -4 10 3 6
8 10 11 10 2 0 4 -4 4 -10z m-1720 -10 c0 -5 -7 -10 -15 -10 -8 0 -15 5 -15
10 0 6 7 10 15 10 8 0 15 -4 15 -10z m344 -6 c24 -9 19 -24 -8 -24 -26 0 -40
12 -29 24 8 8 17 8 37 0z m618 -44 c2 -21 8 -25 38 -26 27 0 35 -4 34 -18 -1
-9 1 -15 4 -12 3 4 16 -1 30 -10 13 -9 22 -11 18 -6 -7 12 31 51 51 53 7 1 19
2 25 3 7 0 16 15 19 31 4 17 7 24 8 18 0 -7 12 -13 26 -13 21 0 16 -8 -46 -70
-64 -63 -109 -88 -109 -59 0 5 -4 8 -9 5 -11 -7 -33 19 -23 28 4 4 0 6 -8 4
-8 -2 -14 3 -12 10 1 8 -1 11 -6 8 -5 -3 -22 8 -37 24 -16 17 -35 30 -42 30
-7 0 -13 5 -13 10 0 6 7 10 15 10 8 0 15 5 15 12 0 21 18 -6 22 -32z m417 24
c2 -2 1 -14 -3 -28 l-6 -26 -25 22 c-34 30 -33 50 3 42 15 -4 29 -8 31 -10z
m541 -17 c8 -14 11 -29 7 -33 -9 -9 -58 47 -51 58 9 14 28 3 44 -25z m-2223
-34 c-6 -9 -6 -13 2 -13 6 0 17 -11 23 -25 9 -21 8 -28 -9 -42 -14 -13 -18
-24 -13 -38 4 -11 3 -25 -1 -31 -6 -8 -4 -14 7 -18 14 -5 14 -9 3 -23 -12 -14
-12 -16 1 -11 11 4 16 0 17 -12 1 -10 -5 -21 -14 -24 -20 -8 -22 -6 -26 32 -2
18 -7 35 -10 39 -11 10 -8 43 3 43 6 0 1 9 -10 20 -11 11 -20 28 -20 38 1 16
1 16 14 0 15 -20 31 -25 19 -5 -4 6 -6 20 -5 30 2 9 -2 17 -8 17 -7 0 -9 7 -6
17 4 9 1 20 -6 25 -10 6 -9 12 6 23 17 13 20 13 31 -8 8 -14 8 -26 2 -34z
m153 36 c0 -5 -7 -9 -15 -9 -15 0 -20 12 -9 23 8 8 24 -1 24 -14z m380 11 c0
-6 9 -6 25 0 27 10 55 4 55 -12 0 -5 8 -8 18 -7 22 4 64 -19 57 -32 -8 -12
-52 -12 -77 2 -15 8 -32 8 -63 -1 -50 -14 -79 -5 -50 17 17 12 17 13 2 13 -9
0 -17 7 -17 15 0 9 9 15 25 15 14 0 25 -4 25 -10z m-452 -19 c3 -8 -1 -12 -9
-9 -7 2 -15 10 -17 17 -3 8 1 12 9 9 7 -2 15 -10 17 -17z m797 -7 c17 -11 36
-14 59 -10 20 4 37 2 41 -4 3 -5 15 -10 26 -10 14 0 19 -7 19 -25 0 -23 -3
-25 -48 -25 -26 0 -53 5 -59 11 -11 11 -48 15 -160 18 -44 1 -52 4 -50 20 2
27 85 37 105 13 13 -16 13 -16 9 0 -10 32 19 38 58 12z m1675 3 c0 -8 -9 -22
-20 -32 -19 -18 -20 -17 -20 7 0 13 3 28 7 31 11 12 33 8 33 -6z m-2210 -7 c0
-5 -5 -10 -11 -10 -5 0 -7 5 -4 10 3 6 8 10 11 10 2 0 4 -4 4 -10z m-197 -69
c-1 -35 -5 -71 -9 -80 -4 -9 -8 -23 -10 -31 -2 -8 -10 -20 -19 -26 -12 -9 -13
-13 -3 -17 7 -2 9 -8 5 -13 -4 -5 -12 -2 -17 6 -14 21 -12 74 2 88 9 9 9 12 0
12 -7 0 -12 7 -12 15 0 8 5 15 10 15 6 0 10 -4 10 -10 0 -5 5 -10 11 -10 8 0
8 5 -1 15 -10 12 -10 18 0 30 9 10 9 15 1 15 -6 0 -11 -4 -11 -10 0 -5 -7 -10
-15 -10 -18 0 -18 5 -4 31 5 11 14 17 20 14 5 -4 9 -1 9 4 0 6 -4 11 -10 11
-5 0 -10 4 -10 9 0 6 12 9 28 8 27 -3 27 -3 25 -66z m194 -1 c-1 -28 -6 -50
-12 -50 -5 0 -9 19 -8 43 2 56 2 57 12 57 5 0 9 -23 8 -50z m-53 -2 c-2 -18
-5 -59 -8 -90 -2 -32 -8 -63 -12 -69 -4 -7 -8 -35 -9 -63 -2 -55 -27 -126 -45
-126 -6 0 -9 8 -6 18 2 9 7 31 10 47 3 17 8 44 12 60 3 17 7 41 8 55 2 14 7
45 11 70 4 25 9 63 10 85 3 48 2 45 18 45 9 0 12 -11 11 -32z m-70 13 c7 -10
-18 -34 -27 -25 -7 8 3 34 13 34 5 0 11 -4 14 -9z m366 -6 c0 -8 -4 -15 -10
-15 -5 0 -10 7 -10 15 0 8 5 15 10 15 6 0 10 -7 10 -15z m48 -17 c-2 -12 3
-23 10 -25 6 -3 12 2 12 11 0 21 29 21 37 0 3 -8 12 -13 20 -10 7 3 21 1 31
-4 9 -5 34 -17 55 -26 50 -22 86 -59 117 -118 13 -27 26 -43 28 -37 2 6 -4 21
-12 33 -9 12 -16 28 -16 36 0 18 -78 93 -118 114 -17 9 -32 22 -32 28 0 13 17
13 25 0 3 -5 12 -10 20 -10 20 0 85 -46 104 -73 8 -12 21 -28 28 -35 7 -7 16
-25 19 -40 7 -33 95 -182 107 -182 9 0 6 7 -38 71 -41 60 -59 105 -51 126 6
14 14 9 51 -27 25 -24 48 -53 51 -65 4 -11 13 -27 20 -36 12 -13 41 -90 71
-183 6 -19 6 -19 -27 0 -18 10 -63 46 -98 79 -45 41 -73 60 -91 60 -16 0 -25
5 -23 13 1 8 -2 11 -7 8 -10 -7 -84 24 -89 36 -2 4 -10 4 -18 1 -7 -3 -17 2
-20 11 -3 9 -12 16 -20 16 -8 0 -14 4 -14 9 0 5 -10 12 -22 16 -18 5 -19 8 -7
11 8 3 29 -1 45 -7 16 -7 33 -11 38 -10 5 1 16 -4 25 -11 9 -7 26 -19 39 -26
21 -12 22 -11 10 10 -7 13 -19 27 -25 31 -7 4 -13 13 -13 18 0 28 -73 73 -156
98 -73 22 -129 55 -118 72 3 5 10 7 15 4 5 -4 9 2 9 13 0 10 3 22 6 25 12 11
25 -4 22 -25z m1051 -203 c0 -198 -2 -235 -15 -235 -8 0 -14 4 -14 10 0 5 -8
6 -17 3 -13 -5 -15 -3 -9 13 6 15 5 17 -5 7 -16 -16 -33 -17 -23 -1 4 7 3 8
-4 4 -6 -4 -19 -2 -29 3 -16 8 -47 20 -63 23 -11 3 -100 58 -117 72 -10 9 -47
40 -83 69 -61 49 -170 180 -170 202 0 6 11 -4 25 -22 14 -17 42 -42 63 -54 20
-13 51 -36 67 -51 17 -15 36 -28 43 -28 6 0 12 -7 12 -15 0 -8 -4 -15 -10 -15
-15 0 -12 -26 5 -40 12 -10 27 -11 61 -3 24 6 47 7 49 3 6 -10 84 5 97 18 6 6
2 17 -13 30 l-22 21 49 57 c64 74 114 141 114 154 0 5 2 10 4 10 2 0 4 -106 5
-235z m1815 219 c16 -41 -2 -141 -31 -169 -24 -24 -27 -10 -8 37 11 29 15 55
10 85 -6 43 -2 63 15 63 4 0 11 -7 14 -16z m-3034 -34 c0 -5 -4 -10 -10 -10
-5 0 -10 5 -10 10 0 6 5 10 10 10 6 0 10 -4 10 -10z m1810 -16 c38 -32 39 -71
2 -66 -21 3 -23 1 -17 -31 4 -21 3 -37 -4 -41 -6 -4 -11 -16 -11 -27 0 -22
-58 -81 -72 -73 -14 9 -9 21 17 32 18 9 25 19 25 41 0 24 -7 32 -40 49 -22 11
-40 15 -40 11 0 -14 -62 -49 -86 -49 -34 0 -45 21 -33 63 5 20 14 39 20 42 14
9 106 19 171 19 l58 0 -20 21 c-39 42 -17 48 30 9z m-1201 -13 c12 -16 21 -32
21 -37 0 -4 19 -31 41 -61 23 -29 39 -56 35 -60 -3 -4 -29 18 -57 48 l-50 54
25 -46 c26 -46 34 -89 16 -89 -5 0 -16 13 -24 28 -8 16 -22 34 -30 41 -12 10
-16 32 -16 82 0 38 4 69 9 69 5 0 19 -13 30 -29z m887 9 c56 0 73 -20 49 -57
-16 -24 -19 -25 -25 -9 -6 17 -7 17 -20 1 -12 -15 -15 -15 -25 -2 -6 9 -20 15
-31 14 -20 -2 -31 30 -19 60 4 13 8 14 17 5 7 -7 31 -12 54 -12z m-1481 -22
c-4 -13 -9 -31 -11 -40 -3 -10 -1 -18 5 -18 5 0 11 10 13 23 2 12 9 21 16 19
7 -1 22 6 33 17 20 18 22 18 42 3 11 -10 30 -27 43 -40 12 -13 25 -19 28 -13
9 14 66 -17 67 -37 0 -11 2 -12 6 -4 6 14 33 16 33 2 0 -5 7 -7 15 -4 9 4 15
0 15 -9 0 -19 -16 -31 -24 -18 -3 4 -17 9 -31 9 -14 0 -32 5 -41 13 -9 7 -22
14 -30 15 -16 3 -19 -12 -4 -21 7 -4 4 -17 -7 -36 -19 -32 -33 -38 -33 -14 0
8 -7 15 -15 15 -9 0 -28 11 -42 24 -21 19 -31 23 -50 15 -16 -6 -23 -5 -23 3
0 6 -3 8 -6 5 -8 -8 -64 24 -64 36 0 5 7 4 15 -3 13 -11 15 -8 15 14 0 32 16
66 31 66 6 0 8 -10 4 -22z m1248 2 c-3 -12 -8 -19 -11 -16 -5 6 5 36 12 36 2
0 2 -9 -1 -20z m39 -22 c-8 -8 -9 -4 -5 13 4 13 8 18 11 10 2 -7 -1 -18 -6
-23z m-1548 -5 c-1 -16 -2 -28 -4 -28 -1 0 -3 -13 -5 -30 -12 -139 -17 -175
-29 -210 -15 -42 -46 -61 -46 -28 0 46 14 93 26 93 8 0 14 5 14 10 0 6 -4 10
-8 10 -5 0 -9 15 -10 34 -1 19 -2 38 -3 42 -1 5 -1 16 0 24 1 12 4 12 15 -3
13 -16 14 -15 18 13 3 22 1 29 -8 26 -16 -6 -12 37 6 58 20 25 36 19 34 -11z
m3186 -13 c0 -5 -2 -10 -4 -10 -3 0 -8 5 -11 10 -3 6 -1 10 4 10 6 0 11 -4 11
-10z m-3070 -29 c0 -27 -21 -82 -29 -76 -9 5 11 95 21 95 5 0 8 -8 8 -19z
m1596 8 c3 -5 18 -9 35 -9 38 0 41 -36 4 -50 -14 -5 -28 -18 -32 -27 -13 -35
-47 -73 -65 -73 -18 0 -18 1 1 28 11 15 22 43 26 62 4 25 3 31 -4 20 -5 -8
-12 -12 -14 -10 -5 5 -10 38 -8 56 1 13 49 16 57 3z m1277 -28 c-5 -19 -103
-121 -103 -107 0 5 16 26 35 48 20 21 41 50 47 63 12 28 29 25 21 -4z m-1820
0 c10 -1 17 -9 17 -22 0 -11 5 -30 11 -41 18 -33 -6 -47 -31 -18 -15 17 -17
26 -9 31 9 5 8 12 -4 24 -9 9 -21 14 -26 11 -5 -3 -14 1 -21 9 -9 11 -7 13 17
10 15 -2 36 -4 46 -4z m97 -9 c0 -13 -12 -22 -22 -16 -10 6 -1 24 13 24 5 0 9
-4 9 -8z m-1045 -15 c11 -7 38 -14 60 -15 41 -2 85 -37 85 -67 0 -8 7 -11 20
-8 15 4 20 0 20 -13 0 -17 1 -17 13 1 17 23 55 15 92 -19 24 -22 47 -28 60
-14 3 3 22 -1 43 -8 20 -7 45 -13 54 -14 30 0 198 -104 198 -121 0 -6 -6 -9
-12 -6 -7 3 -38 15 -68 27 -113 44 -177 76 -198 97 -8 7 -18 10 -24 7 -7 -5
-4 -12 7 -21 17 -12 15 -13 -22 -13 -26 0 -50 8 -67 21 -16 12 -44 22 -66 23
-25 2 -52 12 -76 31 -21 16 -47 30 -60 31 -51 6 -104 51 -104 90 0 9 26 4 45
-9z m1005 -25 c0 -15 -2 -15 -10 -2 -13 20 -13 33 0 25 6 -3 10 -14 10 -23z
m714 12 c6 -16 -16 -68 -35 -79 -16 -10 -23 3 -10 18 6 8 9 22 5 31 -8 22 2
46 20 46 7 0 17 -7 20 -16z m35 -16 c0 -28 -2 -30 -9 -13 -12 28 -12 45 0 45
6 0 10 -15 9 -32z m134 17 c-3 -9 -8 -14 -10 -11 -3 3 -2 9 2 15 9 16 15 13 8
-4z m-2293 -3 c0 -4 -9 -13 -20 -20 -23 -14 -26 -8 -7 13 13 16 27 19 27 7z
m666 -19 c18 -24 17 -33 -1 -33 -8 0 -15 5 -15 11 0 8 -5 8 -15 -1 -19 -16
-21 4 -2 25 16 18 17 18 33 -2z m784 2 c0 -8 7 -15 15 -15 8 0 15 -4 15 -9 0
-11 -30 -19 -47 -14 -14 5 -18 35 -6 46 11 12 23 8 23 -8z m482 -7 c-7 -7 -12
-8 -12 -2 0 6 3 14 7 17 3 4 9 5 12 2 2 -3 -1 -11 -7 -17z m-816 -15 c6 -16
19 -50 29 -78 9 -27 32 -80 51 -116 31 -62 42 -99 28 -99 -21 0 -48 29 -73 78
-35 71 -48 112 -56 185 -7 61 3 75 21 30z m624 17 c0 -5 -5 -10 -11 -10 -5 0
-7 5 -4 10 3 6 8 10 11 10 2 0 4 -4 4 -10z m-1660 -23 c0 -7 -5 -18 -12 -25
-9 -9 -9 -12 1 -12 11 0 11 -3 1 -15 -7 -8 -8 -15 -2 -15 5 0 8 -15 7 -32 -2
-18 -4 -33 -5 -33 -1 0 -4 -34 -6 -75 -7 -116 -8 -123 -20 -127 -15 -5 -23 74
-10 87 7 7 6 10 -1 10 -15 0 -9 103 7 108 8 3 7 8 -1 19 -8 9 -9 17 -3 21 5 4
9 21 8 37 -1 33 12 65 26 65 6 0 10 -6 10 -13z m-100 -29 c0 -35 -12 -30 -17
7 -2 14 1 25 7 25 5 0 10 -14 10 -32z m1980 18 c0 -8 -6 -16 -13 -19 -19 -7
-41 8 -33 22 10 16 46 14 46 -3z m-1560 -21 c14 -8 33 -14 43 -15 11 0 31 -9
47 -20 15 -10 49 -25 76 -32 27 -6 58 -20 69 -29 32 -28 105 -57 162 -65 31
-4 50 -11 46 -16 -12 -20 -115 2 -179 37 -34 19 -69 35 -76 35 -8 0 -45 16
-84 35 -38 19 -75 35 -82 35 -23 0 -73 30 -67 40 8 13 15 12 45 -5z m320 5 c0
-5 -4 -10 -10 -10 -5 0 -10 5 -10 10 0 6 5 10 10 10 6 0 10 -4 10 -10z m1016
-18 c-17 -16 -18 -16 -5 5 7 12 15 20 18 17 3 -2 -3 -12 -13 -22z m-996 -7
c-6 -8 -18 -11 -26 -8 -12 4 -12 8 3 18 22 16 38 8 23 -10z m2320 21 c0 -3 -4
-8 -10 -11 -5 -3 -10 -1 -10 4 0 6 5 11 10 11 6 0 10 -2 10 -4z m-1003 -12
c-3 -3 -12 -4 -19 -1 -8 3 -5 6 6 6 11 1 17 -2 13 -5z m-829 -37 c10 -19 25
-57 33 -85 7 -29 16 -52 20 -52 5 0 2 21 -6 47 -15 49 -14 60 4 49 11 -7 24
-52 36 -118 7 -43 -9 -52 -19 -12 -4 15 -9 24 -11 22 -2 -2 1 -21 7 -41 23
-76 -20 -54 -58 29 -20 44 -53 159 -54 187 0 20 30 3 48 -26z m67 23 c3 -5 1
-10 -4 -10 -6 0 -11 5 -11 10 0 6 2 10 4 10 3 0 8 -4 11 -10z m-1300 -27 c-9
-8 -18 -13 -21 -10 -8 8 19 36 29 30 4 -2 0 -11 -8 -20z m2835 1 c0 -11 -5
-14 -16 -10 -9 3 -20 6 -25 6 -5 0 -9 5 -9 10 0 6 11 10 25 10 16 0 25 -6 25
-16z m-2503 -30 c-4 -24 33 -74 56 -74 6 0 24 -11 42 -24 17 -13 51 -30 76
-36 24 -6 53 -20 64 -30 26 -24 69 -40 107 -40 17 0 46 -10 66 -22 35 -21 64
-24 182 -16 35 2 45 0 45 -12 0 -10 -11 -16 -30 -17 -16 -1 -55 -5 -87 -9 -48
-5 -64 -3 -111 20 -31 14 -71 26 -90 26 -21 0 -50 11 -73 27 -21 14 -61 35
-88 45 -27 11 -60 28 -74 39 -14 10 -30 19 -36 19 -6 0 -24 11 -40 25 -28 24
-43 72 -31 103 8 22 27 2 22 -24z m71 0 c-11 -23 -48 -34 -48 -14 0 6 6 9 13
8 6 -2 12 6 11 18 0 15 5 20 17 17 15 -4 16 -9 7 -29z m2712 18 c0 -5 -11 -19
-25 -32 -28 -26 -33 -16 -9 18 15 22 34 30 34 14z m-2675 -22 c-7 -22 5 -26
22 -9 14 14 53 2 53 -16 0 -7 4 -15 10 -17 14 -5 0 -48 -16 -48 -8 0 -14 -4
-14 -10 0 -5 -4 -10 -10 -10 -5 0 -10 7 -10 15 0 9 -6 12 -15 9 -9 -4 -15 0
-15 10 0 10 -8 16 -22 16 -21 0 -21 0 -2 15 11 8 14 15 7 15 -16 0 -17 22 -1
38 17 17 20 15 13 -8z m523 8 c19 -19 14 -30 -8 -18 -11 6 -20 15 -20 20 0 14
14 12 28 -2z m2092 3 c0 -5 -7 -14 -15 -21 -12 -10 -15 -10 -15 2 0 8 3 18 7
21 9 10 23 9 23 -2z m-322 -39 c12 -13 22 -33 23 -45 2 -65 30 -138 63 -166 8
-7 46 -21 83 -31 140 -39 199 -57 212 -64 8 -5 17 -3 22 5 6 11 9 10 15 -4 3
-10 22 -33 40 -52 23 -24 36 -49 41 -78 9 -51 10 -39 -12 -115 -22 -75 -40
-86 -117 -76 -45 6 -52 4 -74 -20 -14 -14 -29 -26 -33 -26 -5 0 -16 -12 -26
-26 -15 -23 -15 -29 -1 -57 19 -42 52 -71 101 -92 l40 -16 -34 -15 c-18 -8
-43 -15 -55 -15 -19 -1 -19 -2 -2 -6 14 -4 16 -7 6 -13 -17 -11 -40 -1 -40 16
0 8 -8 14 -17 14 -10 0 -30 7 -45 14 -16 9 -28 10 -28 5 0 -6 -5 -7 -10 -4 -6
4 -9 12 -8 18 5 23 -62 116 -100 141 -21 13 -70 40 -110 60 -40 20 -72 40 -72
45 0 5 19 27 43 49 81 78 132 124 151 138 18 12 18 17 5 74 -11 50 -19 64 -44
80 -17 10 -40 36 -52 57 -26 46 -67 156 -76 201 l-7 32 48 -2 c34 -2 53 -10
70 -26z m-2488 -15 c0 -13 -8 -32 -17 -43 -24 -26 -41 -53 -54 -84 -18 -42
-69 -88 -69 -62 0 4 11 19 25 34 15 16 20 28 13 30 -7 3 -8 9 -3 18 5 8 10 22
10 30 1 12 81 99 93 100 1 0 2 -10 2 -23z m2870 13 c0 -5 -5 -10 -11 -10 -5 0
-7 5 -4 10 3 6 8 10 11 10 2 0 4 -4 4 -10z m-930 -15 c0 -20 -22 -65 -32 -65
-11 0 -10 25 4 55 12 27 28 33 28 10z m-1570 -3 c0 -9 -30 -36 -45 -41 -5 -1
-16 -7 -22 -13 -9 -8 -13 -7 -13 3 0 22 17 42 29 35 6 -4 11 0 11 8 0 9 9 16
20 16 11 0 20 -3 20 -8z m2426 -24 c-22 -31 -21 -35 14 -43 20 -4 37 -2 47 7
15 11 16 10 11 -9 -7 -27 -1 -29 23 -7 24 21 39 10 39 -29 0 -44 15 -66 24
-35 5 19 8 20 16 8 5 -8 10 -26 10 -40 1 -22 2 -23 11 -7 14 25 29 21 29 -8 0
-15 5 -24 13 -22 7 1 11 -7 9 -23 -4 -24 -3 -25 12 -5 8 11 16 15 16 8 0 -7 6
-10 13 -8 6 3 24 -15 40 -39 28 -45 28 -45 13 -97 -9 -28 -21 -57 -27 -65 -5
-7 -17 -61 -25 -121 -19 -141 -22 -147 -81 -162 -26 -7 -70 -19 -97 -28 -64
-19 -81 -6 -64 50 12 38 28 50 28 21 0 -14 3 -14 15 -4 9 7 26 14 40 15 14 2
38 14 54 27 54 44 61 63 76 239 l6 66 -53 45 c-66 56 -81 64 -138 72 -25 4
-69 14 -98 23 -47 14 -52 18 -50 42 2 18 -2 26 -12 26 -20 0 -33 34 -19 51 13
16 33 19 24 4 -3 -5 1 -10 9 -10 9 0 16 3 16 8 0 12 62 84 67 78 3 -3 -2 -15
-11 -28z m-3106 12 c0 -5 -7 -10 -15 -10 -8 0 -15 5 -15 10 0 6 7 10 15 10 8
0 15 -4 15 -10z m45 -30 c-3 -6 -2 -10 4 -10 6 0 8 -7 5 -15 -4 -8 -1 -15 5
-15 6 0 11 -7 11 -15 0 -8 -5 -15 -11 -15 -6 0 -9 -7 -6 -15 4 -8 1 -17 -5
-21 -7 -4 -6 -9 3 -14 9 -6 8 -12 -5 -25 -19 -19 -33 -14 -20 7 11 17 11 40 1
55 -4 6 -4 14 1 17 4 2 7 29 5 58 -2 41 -1 49 7 35 6 -9 8 -22 5 -27z m1364
19 c21 -34 40 -96 51 -165 6 -34 13 -70 16 -78 3 -9 1 -16 -5 -16 -6 0 -11 5
-11 12 0 6 -6 19 -14 27 -17 20 -42 101 -51 165 -4 27 -9 55 -12 62 -8 22 11
16 26 -7z m-704 1 c3 -5 -10 -26 -29 -46 -29 -30 -36 -33 -36 -18 0 20 19 56
20 39 1 -5 5 0 10 13 10 23 25 29 35 12z m1591 -11 c1 -5 2 -18 3 -29 0 -11 8
-20 16 -20 8 0 15 -6 15 -14 0 -7 7 -19 15 -26 8 -7 15 -18 15 -25 0 -20 64
-115 78 -115 6 0 13 -4 13 -10 1 -5 2 -13 3 -17 0 -5 11 -22 24 -40 16 -23 22
-45 22 -87 0 -76 -19 -86 -95 -51 l-55 25 -50 -26 c-43 -22 -53 -24 -87 -15
-21 6 -51 11 -68 11 -43 0 -21 14 70 45 44 15 90 33 101 40 30 19 98 104 90
112 -8 8 -119 4 -126 -5 -3 -4 -24 -12 -47 -18 -35 -9 -43 -9 -43 3 0 7 13 16
30 19 16 4 35 13 41 20 6 8 21 14 33 14 33 0 57 22 50 46 -6 23 -45 28 -73 10
-9 -6 -17 -3 -23 7 -6 12 -17 15 -37 11 -42 -9 -49 13 -15 42 16 13 36 21 44
19 20 -6 44 10 36 24 -4 6 -14 11 -22 11 -8 0 -14 7 -14 16 0 11 5 14 16 10
11 -4 18 1 21 14 5 20 17 19 19 -1z m-116 2 c0 -5 -14 -21 -31 -35 -37 -32
-30 -34 11 -4 32 24 45 22 27 -3 -15 -20 -92 -60 -100 -52 -10 10 22 61 42 68
11 3 22 12 25 20 6 16 26 21 26 6z m-2000 -11 c0 -5 -4 -10 -10 -10 -5 0 -10
5 -10 10 0 6 5 10 10 10 6 0 10 -4 10 -10z m608 -17 c12 -3 22 -12 22 -21 0
-12 3 -13 12 -4 7 7 33 12 59 12 49 0 79 -18 79 -46 0 -8 5 -14 10 -14 19 0
10 -27 -12 -37 -31 -13 -79 -9 -133 14 -44 18 -57 37 -32 46 6 2 9 8 5 12 -5
5 -16 -2 -27 -13 -10 -12 -26 -22 -35 -22 -19 0 -22 26 -3 33 6 2 9 7 6 11 -3
3 -15 -3 -27 -14 -12 -11 -28 -17 -36 -14 -16 6 -22 24 -8 24 4 0 20 11 36 25
18 16 36 23 45 19 9 -4 26 -9 39 -11z m-340 -33 c38 -21 83 -42 98 -46 16 -4
47 -17 69 -29 22 -13 60 -26 85 -30 25 -4 61 -16 80 -26 19 -11 51 -19 70 -19
80 -1 152 -32 135 -60 -5 -8 -11 -8 -23 3 -10 8 -42 17 -72 21 -59 7 -196 46
-270 76 -123 50 -270 128 -270 142 0 17 30 7 98 -32z m586 15 c27 -8 62 -15
79 -15 16 0 42 -9 57 -20 16 -11 45 -27 64 -35 20 -9 36 -22 36 -30 0 -16 -25
-21 -34 -7 -5 8 -48 21 -162 51 -42 11 -94 45 -94 62 0 11 -4 12 54 -6z m1041
4 c4 -5 -5 -21 -19 -34 -14 -13 -26 -28 -26 -32 1 -30 48 -47 75 -27 27 20 53
17 60 -7 8 -24 -14 -54 -22 -30 -5 11 -7 11 -13 0 -7 -10 -14 -10 -34 -1 -18
8 -34 8 -51 2 -34 -13 -31 -18 6 -16 18 0 34 -5 36 -11 3 -9 -8 -13 -35 -13
-23 0 -45 -6 -52 -15 -12 -14 -50 -21 -50 -9 0 3 14 17 30 31 17 13 30 30 30
36 0 7 -20 -10 -45 -36 -25 -27 -45 -52 -45 -55 0 -4 19 -7 42 -7 45 0 62 -19
28 -30 -27 -8 -110 3 -110 15 0 4 16 28 36 51 20 24 59 78 86 121 50 77 61 88
73 67z m-1806 -126 c-67 -132 -67 -132 -79 -114 -12 20 13 82 60 155 51 78 59
88 70 81 4 -3 -18 -58 -51 -122z m1237 94 c20 -30 27 -56 40 -165 12 -101 -47
-2 -65 109 -17 102 -12 113 25 56z m113 3 c24 -11 51 -20 61 -20 28 0 40 -23
44 -81 2 -30 7 -68 11 -85 6 -27 4 -33 -13 -38 -11 -4 -36 -18 -56 -31 -19
-13 -38 -21 -40 -16 -3 4 -14 51 -25 105 -13 62 -29 113 -45 137 -14 21 -26
41 -26 44 0 11 48 3 89 -15z m361 -10 c0 -19 -34 -41 -55 -36 -17 4 -24 1 -28
-14 -5 -21 -31 -27 -42 -10 -3 6 -21 10 -40 10 -27 0 -34 -5 -39 -25 -4 -14
-10 -25 -16 -25 -13 0 -23 38 -16 66 7 25 8 25 71 19 45 -5 70 -4 79 5 18 14
68 29 79 23 4 -2 7 -8 7 -13z m-1600 -4 c0 -7 -8 -24 -18 -37 -10 -13 -35 -58
-56 -99 -41 -80 -62 -108 -72 -97 -7 6 4 29 79 162 46 80 67 103 67 71z m59
-31 c8 0 22 -13 31 -29 15 -28 15 -34 -8 -105 -29 -95 -49 -141 -61 -141 -19
0 -42 33 -35 49 3 9 16 41 27 71 11 30 27 66 36 79 12 18 12 26 3 29 -6 2 -12
11 -13 20 0 10 -7 -8 -15 -38 -27 -103 -47 -160 -55 -160 -5 0 -9 7 -9 16 0
13 -4 12 -18 -6 -25 -31 -55 -18 -41 18 17 45 80 154 86 148 3 -3 0 -26 -6
-52 -7 -25 -10 -48 -8 -51 3 -2 12 25 21 61 23 91 37 125 45 106 3 -8 12 -15
20 -15z m1631 5 c0 -5 -7 -10 -16 -10 -8 0 -12 5 -9 10 3 6 10 10 16 10 5 0 9
-4 9 -10z m930 -14 c0 -3 -4 -8 -10 -11 -5 -3 -10 -1 -10 4 0 6 5 11 10 11 6
0 10 -2 10 -4z m-527 -32 c-4 -10 -9 -12 -15 -6 -12 12 -1 35 12 27 5 -3 6
-13 3 -21z m23 -32 c-12 -12 -18 8 -10 35 l8 28 4 -28 c2 -16 1 -31 -2 -35z
m-2431 19 c3 -5 1 -12 -5 -16 -5 -3 -10 1 -10 9 0 18 6 21 15 7z m485 1 c0 -5
-11 -36 -25 -70 -30 -74 -30 -76 -5 -69 14 3 18 1 13 -6 -4 -7 -12 -37 -19
-67 -11 -58 -36 -76 -42 -32 -3 22 -4 23 -17 5 -7 -10 -16 -15 -19 -12 -8 7
94 259 105 259 5 0 9 -4 9 -8z m681 -23 c79 -12 109 -23 96 -35 -8 -8 -152 12
-197 27 -38 14 -40 32 -2 25 15 -3 61 -10 103 -17z m589 -24 c-30 -32 -36 -26
-15 15 12 24 20 29 28 21 8 -8 4 -18 -13 -36z m58 -35 c-41 -56 -58 -71 -58
-51 0 17 93 136 98 123 2 -6 -16 -39 -40 -72z m-1837 14 c-2 -66 -2 -64 5
-102 5 -28 3 -34 -15 -39 -19 -5 -28 -35 -22 -75 0 -4 -7 -45 -15 -93 -12 -65
-13 -89 -5 -99 14 -17 4 -69 -13 -63 -14 5 -37 -55 -41 -107 -3 -38 -28 -76
-41 -63 -4 4 -2 18 4 32 7 14 12 46 12 70 0 24 4 47 10 50 5 3 10 22 10 41 0
19 4 42 9 52 6 9 19 85 31 167 11 83 25 164 31 182 6 17 12 44 13 60 2 15 4
32 5 36 0 5 6 7 13 5 7 -3 11 -23 9 -54z m566 24 c-3 -13 -12 -55 -21 -94 -9
-40 -17 -78 -19 -85 -2 -8 -2 -11 0 -6 3 4 9 7 14 7 12 0 11 -41 -1 -60 -8
-12 -10 -12 -16 3 -5 14 -9 15 -20 6 -11 -9 -14 -8 -14 4 0 28 40 208 50 227
15 27 34 25 27 -2z m1924 -3 c5 4 9 -3 9 -14 0 -25 -6 -26 -27 -6 -9 10 -12
22 -7 33 7 16 7 16 11 -1 3 -9 9 -15 14 -12z m-2461 5 c0 -5 -4 -10 -10 -10
-5 0 -10 5 -10 10 0 6 5 10 10 10 6 0 10 -4 10 -10z m1100 -16 c19 -7 44 -13
56 -14 11 0 29 -7 40 -15 18 -14 17 -14 -13 -15 -17 0 -44 5 -59 10 -23 9 -25
8 -15 -3 21 -26 147 -77 266 -107 65 -16 124 -35 131 -41 21 -17 -11 -59 -45
-59 -28 0 -116 26 -198 59 -29 11 -53 18 -53 14 0 -4 12 -20 27 -35 43 -45 6
-34 -73 21 -38 26 -86 54 -107 61 -21 6 -41 18 -44 25 -2 8 1 39 7 70 10 47
15 55 28 49 10 -4 33 -13 52 -20z m590 16 c0 -5 -4 -10 -10 -10 -5 0 -10 5
-10 10 0 6 5 10 10 10 6 0 10 -4 10 -10z m-1105 -42 c9 -54 9 -169 1 -203 -5
-21 -11 -25 -29 -19 -12 3 -24 8 -26 11 -6 5 16 231 24 243 12 20 23 9 30 -32z
m2145 -59 c0 -19 -38 -51 -51 -44 -4 3 -10 24 -14 48 -4 23 -12 50 -17 60 -5
9 -6 23 -2 29 10 15 84 -67 84 -93z m-2067 65 c-1 -10 0 -13 3 -6 3 6 10 12
16 12 10 0 7 -77 -8 -186 -5 -36 -9 -41 -30 -41 -23 0 -24 2 -18 31 3 17 10
35 15 40 5 6 9 19 9 29 0 17 -2 18 -17 6 -15 -13 -16 -9 -9 49 4 35 10 70 13
78 8 21 28 11 26 -12z m1117 19 c-1 -15 -49 -67 -55 -61 -8 7 35 68 47 68 4 0
8 -3 8 -7z m250 -3 c0 -5 -4 -10 -10 -10 -5 0 -19 -9 -30 -20 -19 -19 -19 -19
-42 0 -25 20 -20 26 37 33 17 2 33 5 38 6 4 0 7 -3 7 -9z m-1249 -51 c-2 -8
-5 -58 -6 -112 -2 -54 -5 -100 -7 -103 -3 -2 -17 0 -32 5 -25 10 -26 12 -26
100 0 49 4 101 9 115 9 21 14 23 38 17 17 -5 26 -14 24 -22z m1299 21 c0 -5
-4 -10 -10 -10 -5 0 -10 5 -10 10 0 6 5 10 10 10 6 0 10 -4 10 -10z m406 -27
c-11 -11 -19 6 -11 24 8 17 8 17 12 0 3 -10 2 -21 -1 -24z m-1616 5 c0 -5 4
-7 10 -3 5 3 13 -11 19 -32 15 -58 24 -133 16 -133 -17 0 -44 48 -45 78 0 19
-9 47 -21 63 -11 16 -18 33 -14 38 7 12 35 3 35 -11z m1368 -10 c19 2 32 0 32
-7 0 -17 -62 -44 -240 -106 -91 -32 -205 -74 -255 -95 -80 -33 -302 -107 -378
-126 -17 -4 -33 -1 -44 7 -9 8 -30 14 -47 14 -87 0 10 50 219 115 33 10 87 27
120 38 467 155 541 177 550 166 6 -6 25 -9 43 -6z m-898 -15 c83 -23 81 -44
-2 -27 -104 22 -118 26 -118 35 0 14 55 11 120 -8z m694 -2 c-5 -5 -65 -26
-134 -46 -68 -20 -127 -38 -131 -41 -4 -2 -10 0 -13 4 -3 5 7 21 22 35 22 22
46 30 118 42 148 24 158 24 138 6z m-1213 -28 c1 -24 3 -29 6 -15 5 26 20 29
27 5 19 -71 13 -173 -10 -150 -4 4 -13 2 -20 -4 -7 -6 -18 -8 -24 -4 -11 7
-14 145 -4 183 10 34 24 26 25 -15z m853 -35 c-45 -51 -60 -65 -76 -71 -22 -8
-28 2 -17 31 6 17 14 22 28 17 13 -4 23 2 35 20 9 14 24 25 33 25 14 0 14 -3
-3 -22z m-52 -10 c-7 -7 -12 -8 -12 -2 0 14 12 26 19 19 2 -3 -1 -11 -7 -17z
m-567 -19 c45 -40 45 -53 -2 -34 -46 19 -68 39 -59 54 11 17 23 13 61 -20z
m-32 -45 c29 -15 63 -35 76 -45 12 -10 39 -21 60 -25 77 -14 131 -63 56 -51
-73 12 -255 111 -255 139 0 12 6 10 63 -18z m966 -20 c-7 -9 -24 -20 -36 -25
-13 -5 -28 -20 -33 -34 -10 -25 -17 -29 -57 -25 -13 1 -33 -6 -45 -14 -29 -21
-51 -20 -71 2 -18 20 -15 22 148 82 33 12 69 25 80 30 26 10 31 4 14 -16z
m-734 -22 c67 -27 95 -52 58 -52 -47 2 -133 48 -133 72 0 11 -2 12 75 -20z
m118 12 c54 -18 61 -34 17 -34 -31 0 -80 25 -80 41 0 12 9 11 63 -7z m717 -5
c12 -6 8 -10 -15 -19 -22 -8 -35 -9 -47 -1 -14 9 -18 8 -18 -3 0 -20 -19 -31
-31 -19 -7 7 1 20 22 37 31 26 48 27 89 5z m180 -4 c0 -18 -7 -26 -27 -31 -27
-7 -53 3 -56 21 -1 6 13 11 31 13 17 2 32 7 32 13 0 5 5 9 10 9 6 0 10 -11 10
-25z m75 3 c28 -12 30 -41 4 -46 -9 -1 -27 6 -40 17 -20 18 -22 22 -9 31 19
12 14 12 45 -2z m-175 -43 c18 -21 7 -28 -30 -20 -25 6 -29 9 -19 21 15 18 33
18 49 -1z m-120 -16 c0 -5 -7 -9 -15 -9 -15 0 -20 12 -9 23 8 8 24 -1 24 -14z
m265 -1 c14 -6 25 -14 25 -18 0 -10 -47 -30 -70 -30 -26 0 -50 10 -50 22 0 7
48 34 67 38 1 0 14 -5 28 -12z m-351 -33 c39 -16 45 -29 20 -39 -18 -7 -77 31
-69 45 8 12 6 12 49 -6z m166 5 c0 -5 -4 -10 -9 -10 -6 0 -13 5 -16 10 -3 6 1
10 9 10 9 0 16 -4 16 -10z m465 -30 c0 -16 -6 -26 -19 -28 -27 -6 -40 12 -26
38 15 28 45 22 45 -10z m-373 7 c47 -16 58 -27 29 -27 -21 0 -81 26 -81 35 0
8 12 6 52 -8z m-878 -53 c68 -33 116 -62 116 -70 0 -24 -66 1 -249 95 -23 12
-25 31 -3 31 11 0 72 -25 136 -56z m520 35 c32 -26 33 -34 1 -55 -21 -14 -31
-15 -50 -6 -30 14 -34 56 -7 71 24 14 26 14 56 -10z m830 -28 c19 -21 14 -41
-8 -41 -22 0 -60 36 -52 48 11 18 41 14 60 -7z m-1866 -23 c3 -22 -2 -29 -22
-34 -14 -3 -26 -11 -26 -18 0 -16 90 -90 98 -81 4 4 1 10 -5 12 -18 7 -16 23
3 23 8 0 12 5 9 10 -4 6 -13 7 -23 1 -25 -13 -74 24 -52 38 9 6 19 6 26 0 8
-7 13 -6 16 3 3 8 26 -8 61 -42 57 -55 71 -77 41 -66 -9 3 -12 2 -9 -5 4 -6
13 -8 20 -5 16 6 55 -21 55 -38 0 -14 -67 -46 -95 -46 -25 0 -17 18 13 29 l27
11 -27 -5 c-23 -4 -38 7 -107 77 -45 46 -79 88 -76 95 3 9 -6 13 -25 13 -42 0
-37 12 13 38 55 28 81 25 85 -10z m926 11 c6 -5 1 -18 -12 -32 -12 -13 -22
-28 -22 -33 0 -11 -36 -44 -49 -44 -16 0 -101 52 -101 62 0 20 22 49 43 57 26
10 128 2 141 -10z m286 -15 c0 -28 -21 -32 -41 -8 -11 14 -10 18 5 30 24 17
36 10 36 -22z m-570 6 c0 -5 -13 -10 -30 -10 -16 0 -30 5 -30 10 0 6 14 10 30
10 17 0 30 -4 30 -10z m497 -26 c48 -18 59 -38 16 -28 -67 17 -77 21 -81 32
-5 16 14 15 65 -4z m-374 -53 c26 -11 47 -22 47 -25 0 -2 -14 -11 -30 -20 -24
-11 -37 -12 -60 -4 -17 5 -30 14 -30 20 0 6 6 8 13 5 40 -15 56 -17 62 -7 6 9
-32 29 -113 61 -13 5 -20 14 -17 19 4 7 20 3 43 -9 20 -11 58 -29 85 -40z
m231 48 c22 -10 24 -15 14 -33 -6 -12 -12 -22 -13 -24 -1 -1 -16 3 -33 9 -43
15 -43 53 0 58 4 1 18 -4 32 -10z m948 -6 c22 -19 23 -33 4 -33 -19 0 -48 29
-41 41 9 13 16 11 37 -8z m-1394 -35 c-4 -21 12 -68 22 -68 6 0 10 -7 10 -16
0 -13 -6 -15 -27 -9 -16 3 -35 13 -42 20 -13 13 -13 19 2 50 16 33 41 49 35
23z m118 -43 c35 -19 70 -35 77 -35 8 0 22 -9 32 -20 10 -11 14 -20 9 -20 -18
0 -168 69 -193 89 -44 34 3 26 75 -14z m269 13 c35 -16 34 -40 -2 -32 -35 8
-47 19 -39 33 9 14 9 14 41 -1z m390 -8 c17 0 25 -5 22 -12 -2 -7 -13 -12 -23
-10 -10 2 -29 3 -41 3 -17 -1 -23 5 -23 19 0 17 3 19 19 10 11 -5 32 -10 46
-10z m110 0 c3 -5 -3 -10 -14 -10 -12 0 -21 5 -21 10 0 6 6 10 14 10 8 0 18
-4 21 -10z m135 -27 c19 -9 53 -24 74 -34 22 -11 45 -19 52 -19 6 0 17 -7 24
-15 19 -23 -1 -19 -78 13 -37 16 -95 37 -129 47 -35 10 -63 23 -63 28 0 12 77
-1 120 -20z m435 3 c18 -13 18 -14 -2 -24 -16 -9 -24 -8 -33 3 -11 14 -6 35 9
35 4 0 16 -6 26 -14z m-1513 -21 c16 -14 42 -25 58 -25 16 0 32 -4 35 -10 4
-6 -7 -10 -26 -10 -27 0 -30 -2 -19 -15 21 -25 2 -30 -23 -7 -12 12 -40 25
-60 29 -42 9 -50 29 -10 26 20 -2 23 1 15 9 -13 13 -16 28 -6 28 3 0 19 -11
36 -25z m435 4 c70 -11 110 -25 100 -36 -12 -11 -249 35 -242 47 6 10 21 8
142 -11z m-210 -37 c47 -19 50 -23 27 -46 -10 -11 -34 -16 -69 -16 -30 0 -57
-5 -61 -11 -4 -8 3 -9 24 -4 33 7 54 -10 23 -20 -23 -7 -71 14 -71 32 0 7 9
22 20 33 11 11 20 26 20 33 0 8 3 17 7 21 7 7 12 6 80 -22z m177 -11 c3 -4 3
-11 0 -14 -8 -8 -34 3 -34 14 0 11 27 12 34 0z m1151 0 c7 -12 -29 -33 -39
-24 -3 3 -6 12 -6 20 0 15 36 18 45 4z m-1602 -23 c3 -10 7 -10 19 -1 12 10
19 8 36 -12 23 -26 26 -44 16 -82 -6 -22 -34 -33 -34 -13 0 5 -25 26 -55 46
-30 20 -55 39 -55 42 0 10 35 31 52 32 9 0 18 -6 21 -12z m403 -10 c4 -6 2
-14 -4 -16 -7 -2 -12 -12 -12 -23 0 -10 -3 -19 -7 -19 -15 0 -51 43 -46 56 6
17 59 19 69 2z m-391 -118 c3 -5 2 -10 -4 -10 -5 0 -13 5 -16 10 -3 6 -2 10 4
10 5 0 13 -4 16 -10z"/>
<path d="M3479 3483 c-13 -15 -12 -16 9 -10 20 5 23 2 19 -14 -7 -25 10 -25
18 1 12 38 -20 55 -46 23z"/>
<path d="M3454 3355 c-10 -8 -14 -15 -8 -15 6 0 17 7 24 15 16 19 9 19 -16 0z"/>
<path d="M620 3503 c0 -10 4 -14 8 -8 4 6 11 13 16 18 5 4 2 7 -7 7 -10 0 -17
-8 -17 -17z"/>
<path d="M1840 3521 c0 -5 5 -13 10 -16 6 -3 10 -2 10 4 0 5 -4 13 -10 16 -5
3 -10 2 -10 -4z"/>
<path d="M1981 3475 c-1 -29 14 -51 24 -35 4 7 3 15 -2 19 -6 3 -13 13 -16 21
-4 11 -6 9 -6 -5z"/>
<path d="M2535 3380 c4 -6 11 -8 16 -5 14 9 11 15 -7 15 -8 0 -12 -5 -9 -10z"/>
<path d="M412 2962 c-25 -17 -62 -77 -61 -101 0 -21 5 -16 23 25 13 28 34 59
47 68 23 16 16 23 -9 8z"/>
<path d="M240 2751 c0 -5 5 -13 10 -16 6 -3 10 -2 10 4 0 5 -4 13 -10 16 -5 3
-10 2 -10 -4z"/>
<path d="M285 2410 c-4 -6 -3 -16 3 -22 13 -13 23 4 13 21 -7 10 -10 10 -16 1z"/>
<path d="M302 2038 c-16 -16 -15 -35 2 -41 10 -4 12 0 8 15 -3 13 -1 19 5 15
5 -3 10 0 10 8 0 18 -9 19 -25 3z"/>
<path d="M2240 3160 c0 -11 5 -20 10 -20 6 0 10 9 10 20 0 11 -4 20 -10 20 -5
0 -10 -9 -10 -20z"/>
<path d="M2240 2926 c0 -2 8 -10 18 -17 15 -13 16 -12 3 4 -13 16 -21 21 -21
13z"/>
<path d="M2356 2685 c4 -8 11 -15 16 -15 6 0 5 6 -2 15 -7 8 -14 15 -16 15 -2
0 -1 -7 2 -15z"/>
<path d="M2430 2775 c-7 -8 -8 -15 -2 -15 5 0 15 7 22 15 7 8 8 15 2 15 -5 0
-15 -7 -22 -15z"/>
<path d="M2477 2690 c-3 -11 -3 -20 -1 -20 2 0 8 9 14 20 6 11 7 20 2 20 -6 0
-12 -9 -15 -20z"/>
<path d="M2921 2810 c0 -8 4 -22 9 -30 12 -18 12 -2 0 25 -6 13 -9 15 -9 5z"/>
<path d="M1138 2673 c7 -3 16 -2 19 1 4 3 -2 6 -13 5 -11 0 -14 -3 -6 -6z"/>
<path d="M3175 2530 c-3 -6 1 -7 9 -4 18 7 21 14 7 14 -6 0 -13 -4 -16 -10z"/>
<path d="M380 2480 c0 -19 3 -21 12 -12 9 9 9 15 0 24 -9 9 -12 7 -12 -12z"/>
<path d="M1052 2211 c-11 -6 -10 -10 0 -19 11 -8 14 -7 14 9 0 10 0 19 -1 19
0 0 -6 -4 -13 -9z"/>
<path d="M1250 1965 c0 -8 7 -15 16 -15 14 0 14 3 4 15 -7 8 -14 15 -16 15 -2
0 -4 -7 -4 -15z"/>
<path d="M1345 1950 c-3 -5 -1 -10 4 -10 6 0 11 5 11 10 0 6 -2 10 -4 10 -3 0
-8 -4 -11 -10z"/>
<path d="M442 2240 c-14 -23 -15 -30 -4 -30 5 0 14 11 20 25 14 30 2 34 -16 5z"/>
<path d="M446 2143 c-3 -10 -9 -24 -12 -30 -3 -7 -1 -13 4 -13 5 0 13 12 16
26 8 30 2 44 -8 17z"/>
<path d="M445 2040 c-3 -5 -1 -10 4 -10 6 0 11 5 11 10 0 6 -2 10 -4 10 -3 0
-8 -4 -11 -10z"/>
<path d="M1900 2110 c0 -5 10 -10 23 -10 18 0 19 2 7 10 -19 13 -30 13 -30 0z"/>
<path d="M2058 2073 c7 -3 16 -2 19 1 4 3 -2 6 -13 5 -11 0 -14 -3 -6 -6z"/>
<path d="M2220 2010 c20 -13 40 -13 40 0 0 6 -12 10 -27 10 -22 0 -25 -2 -13
-10z"/>
<path d="M3055 1789 c-34 -16 -35 -17 -10 -12 46 9 69 19 59 25 -5 3 -27 -3
-49 -13z"/>
<path d="M3038 1663 c7 -3 16 -2 19 1 4 3 -2 6 -13 5 -11 0 -14 -3 -6 -6z"/>
<path d="M2828 1433 c6 -2 18 -2 25 0 6 3 1 5 -13 5 -14 0 -19 -2 -12 -5z"/>
<path d="M2795 1391 c-16 -10 -39 -29 -50 -42 l-20 -24 25 21 c14 12 41 31 60
43 19 11 31 21 25 21 -5 0 -23 -8 -40 -19z"/>
<path d="M2765 1334 c-23 -36 -15 -37 13 -3 13 16 19 29 14 29 -5 0 -17 -12
-27 -26z"/>
<path d="M2700 1318 c0 -7 5 -20 10 -28 8 -12 10 -11 10 7 0 12 -4 25 -10 28
-5 3 -10 0 -10 -7z"/>
<path d="M2784 1298 l-19 -23 23 19 c12 11 22 21 22 23 0 8 -8 2 -26 -19z"/>
<path d="M1849 1643 c-13 -15 -12 -15 9 -4 23 12 28 21 13 21 -5 0 -15 -7 -22
-17z"/>
<path d="M2296 1744 c-9 -23 -8 -24 14 -24 23 0 26 13 6 29 -11 9 -15 8 -20
-5z"/>
<path d="M1746 1712 c-3 -4 4 -9 15 -9 23 -2 25 3 4 10 -8 4 -16 3 -19 -1z"/>
<path d="M335 1700 c-3 -5 -1 -10 4 -10 6 0 11 5 11 10 0 6 -2 10 -4 10 -3 0
-8 -4 -11 -10z"/>
<path d="M1860 1326 c0 -2 7 -7 16 -10 8 -3 12 -2 9 4 -6 10 -25 14 -25 6z"/>
<path d="M960 1510 c-9 -6 -10 -10 -3 -10 6 0 15 5 18 10 8 12 4 12 -15 0z"/>
<path d="M827 1308 c-10 -11 -16 -23 -12 -26 4 -4 11 1 16 11 6 9 14 15 20 12
5 -4 9 -2 9 4 0 18 -15 18 -33 -1z"/>
<path d="M861 1281 c-8 -5 -9 -11 -3 -15 5 -3 12 1 16 9 6 17 6 18 -13 6z"/>
<path d="M1274 435 c1 -12 9 -21 21 -22 14 -1 15 0 3 3 -9 3 -19 13 -21 22 -3
12 -4 11 -3 -3z"/>
<path d="M1405 490 c-8 -13 5 -13 25 0 13 8 13 10 -2 10 -9 0 -20 -4 -23 -10z"/>
<path d="M2320 409 c0 -4 19 -13 43 -19 23 -6 55 -15 71 -20 23 -8 34 -6 48 7
14 12 15 18 6 24 -7 4 -17 1 -23 -8 -10 -13 -19 -13 -78 5 -37 11 -67 16 -67
11z"/>
</g>
</svg>
